<?xml version="1.0" encoding="UTF-8" standalone="no"?>
<svg
   data-name="Layer 1"
   width="1017.83078"
   height="752.26869"
   viewBox="0 0 1017.83078 752.26869"
   version="1.1"
   id="svg25"
   sodipodi:docname="bienvenida.svg"
   inkscape:version="1.3.2 (091e20e, 2023-11-25, custom)"
   xmlns:inkscape="http://www.inkscape.org/namespaces/inkscape"
   xmlns:sodipodi="http://sodipodi.sourceforge.net/DTD/sodipodi-0.dtd"
   xmlns="http://www.w3.org/2000/svg"
   xmlns:svg="http://www.w3.org/2000/svg">
  <defs
     id="defs25" />
  <sodipodi:namedview
     id="namedview25"
     pagecolor="#ffffff"
     bordercolor="#cccccc"
     borderopacity="1"
     inkscape:showpageshadow="0"
     inkscape:pageopacity="1"
     inkscape:pagecheckerboard="0"
     inkscape:deskcolor="#d1d1d1"
     inkscape:zoom="1"
     inkscape:cx="607.5"
     inkscape:cy="353.5"
     inkscape:window-width="1920"
     inkscape:window-height="1017"
     inkscape:window-x="-8"
     inkscape:window-y="-8"
     inkscape:window-maximized="1"
     inkscape:current-layer="svg25" />
  <path
     d="M430.17958,804.71527q-46.60473,0-93.07031-1.44922c-44.26221-1.38086-90.03174-2.80762-132.57276-23.29883-29.75927-14.333-56.11572-37.3291-76.21923-66.50391a207.83633,207.83633,0,0,1-29.21143-63.60449,228.67366,228.67366,0,0,1-6.44824-33.28613,226.38642,226.38642,0,0,1,7.54541-90.49317,202.11618,202.11618,0,0,1,16.97363-40.40039c31.02344-55.79345,87.60791-93.24609,155.24512-102.7539a9.01656,9.01656,0,0,1,1.68457-.03125c.3042.01416.60742.02929.9165.01806l.398-.10986a21.86278,21.86278,0,0,1,3.13281-.69824c104.31446-13.48682,214.58985,13.80176,318.89649,78.91357,80.6499,50.35108,187.53369,77.46436,326.75976,82.88916l1.97657.08985c38.75732,1.93359,76.24707,15.81054,108.42089,40.13281a203.69025,203.69025,0,0,1,68.95313,92.624c1.6416,4.46094,3.14648,9.10449,4.47266,13.80078,2.51269,8.88282-.39991,17.8584-7.99219,24.69043v.00879l-.34668.30957c-.83447.72071-1.71289,1.41211-2.61084,2.05567l-1.05567.75586c-8.89746,6.36523-15.9248,11.39355-24.33544,15.29882a82.14255,82.14255,0,0,1-17.75391,5.82129c-33.92774,7.1836-68.38184,13.84375-102.40527,19.79688C885.45741,770.86175,817.641,780.40667,749.96718,787.6596A3003.64766,3003.64766,0,0,1,430.17958,804.71527ZM273.31532,384.87005a4.63987,4.63987,0,0,0-.62109.03662c-67.00488,9.41895-123.05371,46.50391-153.76953,101.74512a200.08509,200.08509,0,0,0-16.80567,40,224.37776,224.37776,0,0,0-7.47509,89.68652,226.66946,226.66946,0,0,0,6.3916,32.99414,205.83781,205.83781,0,0,0,28.92822,62.9961c19.90674,28.88867,45.99365,51.65429,75.44092,65.83594C247.56386,798.4721,293.11757,799.893,337.17177,801.266a3001.51063,3001.51063,0,0,0,412.582-15.59473c67.62988-7.249,135.40234-16.78711,201.43457-28.35058,34.00049-5.94825,68.43066-12.60352,102.33545-19.78321a80.09168,80.09168,0,0,0,17.32617-5.67871c8.24121-3.82617,15.20166-8.80664,24.01367-15.11133l1.05567-.75488c.772-.55371,1.52978-1.14551,2.25488-1.76074l.208-.18945c7.2417-6.33887,10.05761-14.70215,7.72607-22.94434v-.001c-1.312-4.64648-2.80078-9.24023-4.42578-13.65527-27.27783-74.74609-97.84277-127.56934-175.5918-131.44727l-1.96582-.08984c-63.59668-2.47852-119.24853-9.34375-170.12842-20.99023C693.25771,511.01214,640.23183,490.08441,596.391,462.7138c-103.90918-64.8623-213.72364-92.04931-317.58252-78.62646a20.03288,20.03288,0,0,0-2.854.64258l-.71728.17431c-.41309.022-.81836.00537-1.22266-.01269C273.7748,384.88079,273.54237,384.87005,273.31532,384.87005Z"
     transform="translate(-91.08461 -73.86566)"
     fill="#f0f0f0"
     id="path1" />
  <path
     d="M1099.04079,714.79565v.01c-.80994.7-1.66,1.37-2.53992,2-14.68005,10.51-24.71008,17.88-42.77,21.71q-51,10.8-102.37006,19.79-100.215,17.55-201.5,28.36a2994.002,2994.002,0,0,1-412.72,15.6c-45.87994-1.43-90.12994-2.95-132.17-23.2-30.73-14.8-56.55-38.19-75.83-66.17-19.55-28.37-31.43994-61.94-35.49-96.44a99.087,99.087,0,0,1,29.97-7.8c35.88-3.42,71.19,9.72,103.82,25.01,32.64,15.28,64.69,33.14,100.03,40.19,52.08,10.39,105.84-3.74,155.77-21.83,49.93-18.09,99.08-40.43,151.74-47.26,70.63-9.17,141.5,10.24,210.08,29.46q109.575,30.705,219.16,61.42c10.43994,2.92,21.27,6.05,29.40991,13.21A36.17064,36.17064,0,0,1,1099.04079,714.79565Z"
     transform="translate(-91.08461 -73.86566)"
     fill="#e6e6e6"
     id="path2" />
  <path
     d="M1099.04079,714.79565v.01c-.80994.7-1.66,1.37-2.53992,2-9.20007,6.58-16.57007,11.94-25.2301,15.96q-44.65485,4.395-89.43,7.61005-115.24493,8.26493-230.94,8.79c-156.47.8-320.98,5.7-457.98-70.3-45.58549-25.2883-111.62,26.57-156.78-1.16a208.5735,208.5735,0,0,1-36.06994-28.11,227.10885,227.10885,0,0,1-6.42005-33.14,224.72209,224.72209,0,0,1,7.51-90.09,200.41013,200.41013,0,0,1,16.89-40.2c20.98,7.53,41.1,18.37,60.25,29.85,35.12,21.03,69.27,44.91,108.38,56.95,57.65,17.75,120.02,7.99,178.52-6.69s116.61-34.24,176.9-35.89c80.86-2.21,158.69,27.9,233.96,57.53q113.265,44.595,226.55993,89.18,2.49006,6.765,4.45008,13.73C1109.74086,700.26562,1105.87074,708.81567,1099.04079,714.79565Z"
     transform="translate(-91.08461 -73.86566)"
     fill="#f2f2f2"
     id="path3" />
  <path
     d="M362.80838,330.89244c-11.37261-7.6666-10.2601-24.44139,1.76661-31.03466q.36706-.20124.71988-.41616.90407-4.32993,1.80822-8.65978c3.54785,3.685,10.52442,2.98952,13.27491-1.32343a225.44564,225.44564,0,0,0-37.41171-56.06548,20.20509,20.20509,0,0,1-.29046-26.8019q.08724-.10167.17294-.20488A95.65823,95.65823,0,0,0,367.003,194.189c-25.4899-40.95375-74.09555-73.4889-85.64863-120.32338-34.75671,37.32463-38.65837,50.47005-73.41516,87.79468,0,0-32.91062,29.69718-40.01414,45.65693,1.74539,1.83339,17.37143,6.233,17.97216,9.83777,11.91681.95532,32.56209-12.10645,32.56209-12.10645s-45.06178,48.04087-58.74307,77.63181c-1.232,2.6647-2.40211,5.70738-1.37,8.4557.824,2.19417,3.78008,3.45928,5.68391,2.5875a24.37352,24.37352,0,0,0-5.37657,7.69885,20.93647,20.93647,0,0,0,25.828-2.60127q-2.8584,5.34033-5.71681,10.68053l.00339.00837a15.56651,15.56651,0,0,1,5.77118,26.19045c-11.82522,10.998-22.63039,22.55822-26.58965,30.17117-3.72466,7.16188,34.5192,15.795,43.12118,15.441s16.64241-4.13372,24.41155-7.84324A18.0599,18.0599,0,0,0,227.43,383.7456a32.8624,32.8624,0,0,0,25.16871-4.06893c-.34282,7.08471,8.594,10.99688,14.797,8.99055-3.09681,48.99028-.83155,117.78337,2.14363,189.19844h7.38145V391.49158a22.25823,22.25823,0,0,0,6.23435,2.07242c15.102,2.68077,33.3263,4.31066,43.15324-7.46587,11.31034,11.40463,32.0369,11.18815,43.28184-.17664-1.10671,1.9607.58717,5.26025,3.09287,5.78012,2.95295.61266,5.82579-1.142,8.3329-2.81807q17.02441-11.38173,34.04887-22.7635C401.05909,356.67837,381.16315,343.266,362.80838,330.89244Z"
     transform="translate(-91.08461 -73.86566)"
     fill="#e6e6e6"
     id="path4" />
  <circle
     cx="612.42315"
     cy="198.58787"
     r="35.64001"
     fill="#f2f2f2"
     id="circle4" />
  <path
     d="M783.27836,255.57938c-2.06134-6.90478-7.88493-11.4124-14.92193-12.40127-.07739-.01092-.15088.0035-.228-.00147a2.22314,2.22314,0,0,0-.30421-.07006,44.46125,44.46125,0,0,0-28.61564,6.22885c-8.24956,5.15006-17.86053,7.47935-27.57831,7.85771q-.08592.00335-.17194.00764a17.61025,17.61025,0,0,0-15.751,12.6957,2.066,2.066,0,0,0,.92011,2.2611,9.031,9.031,0,0,0,3.72364,1.89009q4.43992.94061,8.91145,1.72332,8.72537,1.52694,17.54182,2.469a260.84605,260.84605,0,0,0,35.92995,1.3581c3.99461-.12449,7.84681-.257,11.50674-2.02a17.12124,17.12124,0,0,0,6.601-5.76037A19.42316,19.42316,0,0,0,783.27836,255.57938Z"
     transform="translate(-91.08461 -73.86566)"
     fill="#e6e6e6"
     id="path5" />
  <path
     d="M709.20315,303.09932c-2.06151-6.90469-7.8851-11.41231-14.92194-12.40118-.07755-.01092-.151.0035-.22811-.00147a2.221,2.221,0,0,0-.304-.07006,44.46147,44.46147,0,0,0-28.61593,6.22895c-8.24928,5.14993-17.85994,7.47957-27.57743,7.85758q-.0863.00336-.1727.00767a17.61025,17.61025,0,0,0-15.751,12.6957,2.06644,2.06644,0,0,0,.92027,2.2611,9.03145,9.03145,0,0,0,3.72348,1.89009q4.43992.94048,8.91145,1.72332,8.72537,1.52682,17.542,2.469a260.85839,260.85839,0,0,0,35.93,1.3581c3.99444-.12449,7.84664-.25712,11.50673-2.02012a17.12343,17.12343,0,0,0,6.601-5.76029A19.424,19.424,0,0,0,709.20315,303.09932Z"
     transform="translate(-91.08461 -73.86566)"
     fill="#e6e6e6"
     id="path6" />
  <path
     d="M1010.80838,451.89244c-11.37261-7.6666-10.2601-24.44139,1.76661-31.03466q.36707-.20124.71988-.41616.90406-4.32993,1.80822-8.65978c3.54785,3.685,10.52442,2.98952,13.27491-1.32343a225.44564,225.44564,0,0,0-37.41171-56.06548,20.20509,20.20509,0,0,1-.29046-26.8019q.08724-.10167.17294-.20488A95.65823,95.65823,0,0,0,1015.003,315.189c-25.4899-40.95375-74.09555-73.4889-85.64863-120.32338-34.75671,37.32463-38.65837,50.47005-73.41516,87.79468,0,0-32.91062,29.69718-40.01414,45.65693,1.74539,1.83339,17.37143,6.233,17.97216,9.83777,11.91681.95532,32.56209-12.10645,32.56209-12.10645s-45.06178,48.04087-58.74307,77.63181c-1.232,2.6647-2.40211,5.70738-1.37,8.4557.824,2.19417,3.78008,3.45928,5.68391,2.5875a24.37352,24.37352,0,0,0-5.37657,7.69885,20.93647,20.93647,0,0,0,25.82805-2.60127q-2.8584,5.34033-5.71681,10.68053l.00339.00837a15.56651,15.56651,0,0,1,5.77118,26.19045c-11.82522,10.998-22.63039,22.55822-26.58965,30.17117-3.72466,7.16188,34.5192,15.795,43.12118,15.441s16.64241-4.13372,24.41155-7.84324A18.0599,18.0599,0,0,0,875.43,504.7456a32.8624,32.8624,0,0,0,25.16871-4.06893c-.34282,7.08471,8.594,10.99688,14.797,8.99055-3.09681,48.99028-.83155,117.78337,2.14363,189.19844h7.38145V512.49158a22.25823,22.25823,0,0,0,6.23435,2.07242c15.102,2.68077,33.3263,4.31066,43.15324-7.46587,11.31034,11.40463,32.0369,11.18815,43.28184-.17664-1.10671,1.9607.58717,5.26025,3.09287,5.78012,2.95295.61266,5.82579-1.14195,8.3329-2.81807q17.02442-11.38173,34.04887-22.7635C1049.05909,477.67837,1029.16315,464.266,1010.80838,451.89244Z"
     transform="translate(-91.08461 -73.86566)"
     fill="#e6e6e6"
     id="path7" />
  <path
     d="M154.05484,641.88332a3.61324,3.61324,0,0,0,2.61866-6.26263c-.09111-.36212-.15647-.62217-.24758-.98429q.0489-.11823.09837-.23628a9.70311,9.70311,0,0,1,17.89849.06652c2.92739,7.05051,6.65446,14.11307,7.57216,21.56779a28.70521,28.70521,0,0,1-.50391,9.87235A115.086,115.086,0,0,0,191.96,618.10785a111.07978,111.07978,0,0,0-.689-12.392q-.5708-5.05968-1.58377-10.04731a116.41946,116.41946,0,0,0-23.087-49.34151,30.98262,30.98262,0,0,1-12.88557-13.36893,23.63324,23.63324,0,0,1-2.14932-6.45821c.62728.08228,1.26488.13369,1.89217.17479.19542.01023.40108.02055.5965.03086l.0737.0033a3.57989,3.57989,0,0,0,2.9401-5.83225q-.40628-.5-.81305-.99948c-.4114-.51422-.833-1.01813-1.24434-1.53227a1.78213,1.78213,0,0,1-.1337-.15433c-.47312-.58618-.94608-1.16206-1.41921-1.74824a10.35167,10.35167,0,0,1,3.39367-3.28044c4.74083-2.77662,11.28132-.85358,14.70585,3.43476,3.43477,4.28826,4.0826,10.30438,2.88976,15.66218a41.48487,41.48487,0,0,1-5.73841,12.793c.25715.32912.52454.64792.78161.977a117.172,117.172,0,0,1,12.22972,19.37481,48.70925,48.70925,0,0,1,2.908-22.62446c2.78346-6.71479,8.00064-12.37,12.595-18.175,5.51856-6.9726,16.83488-3.92959,17.80713,4.90927q.01412.12837.02756.25666-1.02362.57749-2.004,1.22585a4.90111,4.90111,0,0,0,1.976,8.91909l.09994.01543a48.76572,48.76572,0,0,1-1.28543,7.29124A50.20985,50.20985,0,0,1,188.844,578.69009c-.40108.20566-.79192.41132-1.193.60674a116.53349,116.53349,0,0,1,4.40148,15.88839,117.59793,117.59793,0,0,1,2.03618,14.4076,113.433,113.433,0,0,1-.08228,18.31542l.03087-.216a29.974,29.974,0,0,1,10.23241-17.30759c7.87437-6.46853,18.9994-8.8505,27.49445-14.04994a5.62529,5.62529,0,0,1,8.61572,5.47252q-.01709.11351-.03475.227a32.92361,32.92361,0,0,0-3.69183,1.779q-1.02363.57761-2.004,1.22585a4.90115,4.90115,0,0,0,1.976,8.91916l.1.01535c.072.01032.1337.02063.20558.031a48.808,48.808,0,0,1-8.97768,14.05786,50.25439,50.25439,0,0,1-36.44572,15.99129h-.01031a119.56321,119.56321,0,0,1-8.03167,23.447H154.77381c-.10291-.3188-.19542-.64791-.288-.96671a32.59917,32.59917,0,0,0,7.93915-.473c-2.12877-2.61214-4.25747-5.24483-6.38625-7.85688a1.783,1.783,0,0,1-.13369-.15425c-1.07978-1.33685-2.16988-2.66347-3.24966-4.00032l-.00058-.00165a47.75114,47.75114,0,0,1,1.39916-12.16411Z"
     transform="translate(-91.08461 -73.86566)"
     fill="#e6e6e6"
     id="path8" />
  <path
     d="M1009.05484,669.88332a3.61324,3.61324,0,0,0,2.61866-6.26263c-.09111-.36212-.15647-.62217-.24758-.98429q.0489-.11823.09837-.23628a9.70311,9.70311,0,0,1,17.89849.06652c2.92739,7.05051,6.65446,14.11307,7.57216,21.56779a28.70521,28.70521,0,0,1-.50391,9.87235A115.086,115.086,0,0,0,1046.96,646.10785a111.07978,111.07978,0,0,0-.689-12.392q-.5708-5.05968-1.58377-10.04731a116.41946,116.41946,0,0,0-23.087-49.34151,30.98262,30.98262,0,0,1-12.88557-13.36893,23.63324,23.63324,0,0,1-2.14932-6.45821c.62728.08228,1.26488.13369,1.89217.17479.19542.01023.40108.02055.5965.03086l.0737.0033a3.57989,3.57989,0,0,0,2.9401-5.83225q-.40628-.5-.813-.99948c-.4114-.51422-.833-1.01813-1.24434-1.53227a1.78213,1.78213,0,0,1-.1337-.15433c-.47312-.58618-.94608-1.16206-1.41921-1.74824a10.35167,10.35167,0,0,1,3.39367-3.28044c4.74083-2.77662,11.28132-.85358,14.70585,3.43476,3.43477,4.28826,4.0826,10.30438,2.88976,15.66218a41.48487,41.48487,0,0,1-5.73841,12.793c.25715.32912.52454.64792.78161.977a117.172,117.172,0,0,1,12.22972,19.37481,48.70925,48.70925,0,0,1,2.908-22.62446c2.78346-6.71479,8.00064-12.37,12.595-18.175,5.51856-6.9726,16.83488-3.92959,17.80713,4.90927q.01412.12837.02756.25666-1.02361.57749-2.004,1.22585a4.90111,4.90111,0,0,0,1.976,8.91909l.09994.01543a48.76572,48.76572,0,0,1-1.28543,7.29124,50.20985,50.20985,0,0,1-24.99984,31.46836c-.40108.20566-.79192.41132-1.193.60674a119.59737,119.59737,0,0,1,6.43766,30.296,113.433,113.433,0,0,1-.08228,18.31542l.03087-.216a29.974,29.974,0,0,1,10.23241-17.30759c7.87437-6.46853,18.9994-8.8505,27.49445-14.04994a5.62529,5.62529,0,0,1,8.61572,5.47252q-.01709.11351-.03475.227a32.92361,32.92361,0,0,0-3.69183,1.779q-1.02363.57761-2.004,1.22585a4.90115,4.90115,0,0,0,1.976,8.91916l.1.01535c.072.01032.1337.02063.20558.031a48.808,48.808,0,0,1-8.97768,14.05786,50.25439,50.25439,0,0,1-36.44572,15.99129h-.01031a119.56321,119.56321,0,0,1-8.03167,23.447h-28.69168c-.10291-.3188-.19542-.64791-.288-.96671a32.59917,32.59917,0,0,0,7.93915-.473c-2.12877-2.61214-4.25747-5.24483-6.38625-7.85688a1.783,1.783,0,0,1-.13369-.15425c-1.07978-1.33685-2.16988-2.66347-3.24966-4.00032l-.00058-.00165a47.75114,47.75114,0,0,1,1.39916-12.16411Z"
     transform="translate(-91.08461 -73.86566)"
     fill="#e6e6e6"
     id="path9" />
  <path
     d="M668.05484,586.88332a3.61324,3.61324,0,0,0,2.61866-6.26263c-.09111-.36212-.15647-.62217-.24758-.98429q.0489-.11823.09837-.23628a9.70311,9.70311,0,0,1,17.89849.06652c2.92739,7.05051,6.65446,14.11307,7.57216,21.56779a28.70521,28.70521,0,0,1-.50391,9.87235A115.086,115.086,0,0,0,705.96,563.10785a111.07978,111.07978,0,0,0-.689-12.392q-.57079-5.05968-1.58377-10.04731a116.41946,116.41946,0,0,0-23.087-49.34151,30.98262,30.98262,0,0,1-12.88557-13.36893,23.63324,23.63324,0,0,1-2.14932-6.45821c.62728.08228,1.26488.13369,1.89217.17479.19542.01023.40108.02055.5965.03086l.0737.0033a3.57989,3.57989,0,0,0,2.9401-5.83225q-.40628-.5-.813-.99948c-.4114-.51422-.833-1.01813-1.24434-1.53227a1.78213,1.78213,0,0,1-.1337-.15433c-.47312-.58618-.94608-1.16206-1.41921-1.74824a10.35167,10.35167,0,0,1,3.39367-3.28044c4.74083-2.77662,11.28132-.85358,14.70585,3.43476,3.43477,4.28826,4.0826,10.30438,2.88976,15.66218a41.48487,41.48487,0,0,1-5.73841,12.793c.25715.32912.52454.64792.78161.977a117.172,117.172,0,0,1,12.22972,19.37481,48.70925,48.70925,0,0,1,2.908-22.62446c2.78346-6.71479,8.00064-12.37,12.595-18.175,5.51856-6.9726,16.83488-3.92959,17.80713,4.90927q.01412.12837.02756.25666-1.02361.57748-2.004,1.22585a4.90111,4.90111,0,0,0,1.976,8.91909l.09994.01543a48.76572,48.76572,0,0,1-1.28543,7.29124A50.20985,50.20985,0,0,1,702.844,523.69009c-.40108.20566-.79192.41132-1.193.60674a119.59737,119.59737,0,0,1,6.43766,30.296,113.433,113.433,0,0,1-.08228,18.31542l.03087-.216a29.974,29.974,0,0,1,10.23241-17.30759c7.87437-6.46853,18.9994-8.8505,27.49445-14.04994a5.62529,5.62529,0,0,1,8.61572,5.47252q-.01709.11351-.03475.227a32.92361,32.92361,0,0,0-3.69183,1.779q-1.02363.57761-2.004,1.22585a4.90115,4.90115,0,0,0,1.976,8.91916l.1.01535c.072.01032.1337.02063.20558.031a48.808,48.808,0,0,1-8.97768,14.05786,50.25439,50.25439,0,0,1-36.44572,15.99129h-.01031a119.56321,119.56321,0,0,1-8.03167,23.447H668.77381c-.10291-.3188-.19542-.64791-.288-.96671a32.59917,32.59917,0,0,0,7.93915-.473c-2.12877-2.61214-4.25747-5.24483-6.38625-7.85688a1.783,1.783,0,0,1-.13369-.15425c-1.07978-1.33685-2.16988-2.66347-3.24966-4.00032l-.00058-.00165a47.75114,47.75114,0,0,1,1.39916-12.16411Z"
     transform="translate(-91.08461 -73.86566)"
     fill="#e6e6e6"
     id="path10" />
  <polygon
     points="394.662 731.045 406.668 727.475 398.726 678.395 381.005 683.664 394.662 731.045"
     fill="#ffb6b6"
     id="polygon10" />
  <path
     d="M412.11159,785.53847c.73109.63694,1.46352,1.26547,2.20411,1.89549,1.47307,1.25857,2.96506,2.5033,4.45969,3.73163.7514.61492,1.511,1.23113,2.26371,1.83784l-.00386.02442.04788.016.01507.0108,1.21319.51161,2.57011-4.50086,1.18552-2.07282,1.67528-2.93658,3.06938-5.37131,16.161-28.28244-17.02419-7.17576-1.09386,2.60847-.0082-.0013-.54084,1.29248-10.1657,24.12261-2.07537,4.93212-.06564.14922-1.24806,2.94536-1.07661,2.55233-1.19968,2.85228Z"
     transform="translate(-91.08461 -73.86566)"
     fill="#ffb6b6"
     id="path11" />
  <path
     d="M323.16217,663.13921c.83748,1.98151,1.70087,3.95871,2.575,5.92079q2.43509,5.47841,5.06555,10.83654c-.0013.0082.00691.0095.01381.019a23.43454,23.43454,0,0,0,3.84252,3.8609c.05781.05958.12637.104.18548.15541a16.21909,16.21909,0,0,0,3.424,2.04664c.44092.18745.89.37625,1.331.56376,1.59368.65579,3.18008,1.25164,4.76482,1.80517q4.2305,1.46424,8.44787,2.481c.22568.061.45261.1137.67958.16647,11.59528,2.71895,23.23481,3.14226,35.51466,2.75941,6.063-.18267,12.28385-.56718,18.72575-.96712,2.10585-.13707,4.21861-.26463,6.356-.3883.161-.0081.33143-.02316.5006-.03,3.05391-.18018,6.15571-.34442,9.33-.48876,3.99553-.1823,8.11011-.32057,12.374-.39318l-1.22095,5.79858a44.54245,44.54245,0,0,1-4.85249,12.70284c-2.59149,4.90079-4.6426,8.77785-3.0348,17.78091l.772,4.35781a14.28737,14.28737,0,0,0-.52652,12.71573l.2181.47992-16.66239,28.21148-1.07967,1.82912,6.0913.96479,7.49182,1.195,12.699,2.01137,24.14548-33.8586,1.15509-1.61548.01428-.09017,9.29538-70.94382c.07407-.627.12487-1.266.14159-1.90209a21.74558,21.74558,0,0,0-5.88308-15.75619,20.94161,20.94161,0,0,0-14.737-6.65376l-6.40019-.18174-13.07609-.37351-9.21186-.2573-.18428-.004-27.1649-.773-.67662-8.09084-.33174-.187-10.55643-5.88236-36.51075-20.34679-.09319-.04836-2.40159-1.33844-.38124.44383c-.1136.13332-.22714.2666-.33247.40118a76.92672,76.92672,0,0,0-8.37567,13.24567,225.94645,225.94645,0,0,0-10.32717,23.55071q-.19641.52354-.35257.95263l-.0389.08627c-.04665.13546-.07734.223-.08944.24635C322.3317,653.73819,322.2354,658.37871,323.16217,663.13921Z"
     transform="translate(-91.08461 -73.86566)"
     fill="#2f2e41"
     id="path12" />
  <path
     d="M325.64972,636.84575c.2061-.50521.44626-1.01339.692-1.50392A113.56544,113.56544,0,0,1,332.704,624.5673c2.61-3.95663,5.65335-8.15555,9.19913-12.66145q2.57322-3.27337,5.49519-6.78553,1.4637-1.75991,3.02925-3.57929a2.11155,2.11155,0,0,1,.13514-.16345l.30006-.35585,37.53833,11.20646-.01847,5.14,2.72267,7.28323-.1845.21422c.00821.0013.00951-.00691,0,0v-1l1,1,9.678,11.95848.0669.00218,21.62732.61024,22.288.63081,11.97184.34151a20.929,20.929,0,0,1,14.737,6.65376,21.75651,21.75651,0,0,1,5.883,15.75623c-.01709.58558-.06139,1.18361-.129,1.7696l6.91367,27.979a171.31656,171.31656,0,0,1,4.71428,51.20347l4.00648,27.23284-1.1728-.07651-17.453-1.12558-4.60931-.293L462.754,751.32349c-.876-1.84475-1.68675-3.72955-2.41723-5.64369a78.91516,78.91516,0,0,1-3.01127-9.58676L443.845,681.18162q-2.57688.03318-5.098.03293-11.66724.04293-22.31656-.45047c-23.08564-1.05968-42.75971-3.97414-59.90628-8.89176q-7.22388-2.06437-13.86629-4.61658-2.43725-.92814-4.79582-1.92775c-.371-.15119-.73387-.30109-1.09541-.45925a21.182,21.182,0,0,1-12.46787-15.99241A21.61261,21.61261,0,0,1,325.64972,636.84575Z"
     transform="translate(-91.08461 -73.86566)"
     fill="#2f2e41"
     id="path13" />
  <path
     d="M483.38754,796.72844l12.99267-3.87524,2.03792-.61,1.8487,7.90671,20.38231,7.99335a5.07342,5.07342,0,0,1-.69033,9.66436l-21.96842,5.15124-5.61673-6.932.35381,8.16579-8.27439,1.94172-4.22376-28.46058Z"
     transform="translate(-91.08461 -73.86566)"
     fill="#2f2e41"
     id="path14" />
  <polygon
     points="319.901 699.669 318.821 701.498 319.592 701.62 319.901 699.669"
     fill="#2f2e41"
     id="polygon14" />
  <path
     d="M414.81639,776.56846l11.959,6.38826,1.87733,1.00044-4.24968,6.9191,8.8589,20.02129a5.07341,5.07341,0,0,1-7.29057,6.38153L406.7366,805.482l.88638-8.87777-5.49421,6.05137-7.24582-4.44229L411.90709,775.018Z"
     transform="translate(-91.08461 -73.86566)"
     fill="#2f2e41"
     id="path15" />
  <path
     d="M501.23519,412.40164a9.099,9.099,0,0,1-9.882,9.84933l-13.30053,29.47252L469.072,437.522l14.00724-25.81036a9.14829,9.14829,0,0,1,18.156.69Z"
     transform="translate(-91.08461 -73.86566)"
     fill="#ffb6b6"
     id="path16" />
  <path
     d="M467.40249,500.07859l-60.93918,46.62719a22.96509,22.96509,0,0,1-32.159-4.27852h0a22.94063,22.94063,0,0,1,7.83978-34.3978l60.75267-30.82227,27.17776-52.9478,18.24885,5.42336Z"
     transform="translate(-91.08461 -73.86566)"
     fill="#fcd34d"
     id="path17" />
  <path
     d="M337.61835,555.47064l-1.23551,45.2439C319.38078,629.4389,317.447,643.38708,322.15317,650.824l69.91043-25.53754,1.17818-2.81333,3.65072-20.21554,6.61869-20.8586c1.16539-2.17935,16.98742-15.56974,2.15557-40.96966l-29.838-40.19607L351.92079,498.865c-3.94145,10.11617,3.16843,15.63556-3.9329,17.96823C331.92963,531.5514,334.28854,533.94654,337.61835,555.47064Z"
     transform="translate(-91.08461 -73.86566)"
     fill="#fcd34d"
     id="path18" />
  <path
     d="M290.072,682.49005a9.099,9.099,0,0,1,6.12468-12.536l2.94888-32.2,13.12526,10.491-4.81255,28.96925a9.1483,9.1483,0,0,1-17.38627,5.27571Z"
     transform="translate(-91.08461 -73.86566)"
     fill="#ffb6b6"
     id="path19" />
  <path
     d="M293.42418,588.57166,335.8,524.60318a22.96508,22.96508,0,0,1,31.79355-6.45584h0a22.94063,22.94063,0,0,1,3.82071,35.0724l-47.35984,48.96882-8.401,58.91963-19.01948.83209Z"
     transform="translate(-91.08461 -73.86566)"
     fill="#fcd34d"
     id="path20" />
  <path
     d="M383.23416,443.97229c8.45328,16.66143,2.93119,35.96077-12.75521,46.10959-16.96255,10.97445-38.98606,8.57148-46.10959-12.75522-7.93279-23.74944-1.4158-33.93777,12.75521-46.10959C353.73142,416.953,374.10055,425.97,383.23416,443.97229Z"
     transform="translate(-91.08461 -73.86566)"
     fill="#2f2e41"
     id="path21" />
  <path
     d="M341.62228,481.08868a26.7642,26.7642,0,0,0,42.58752-32.42822l-.23226-.305a26.7642,26.7642,0,0,0-42.34864,32.72824Z"
     transform="translate(-91.08461 -73.86566)"
     fill="#ffb6b6"
     id="path22" />
  <path
     d="M391.42612,441.27461a36.56932,36.56932,0,0,1-15.4373,8.74719,15.99263,15.99263,0,0,0-4.06837-3.37154,17.10944,17.10944,0,0,1,1.493,4.83079c-2.58049,5.35534-13.11977,9.20435-23.19272,13.14162L336.879,441.07675l17.65944-10.00631C368.7283,421.26018,385.433,425.44723,391.42612,441.27461Z"
     transform="translate(-91.08461 -73.86566)"
     fill="#2f2e41"
     id="path23" />
  <path
     d="M326.81509,431.24658c-2.403-1.11034-5.51691-.4246-7.776,1.13553a17.3308,17.3308,0,0,0-5.076,6.174,44.26792,44.26792,0,0,0-4.60243,12.5437c-.76172,3.79783-.63278,8.38944,2.77477,10.37136,2.84326,1.65377,6.9087.61248,9.52191-1.59455,2.61324-2.207,4.08539-5.3093,5.3603-8.33807s2.481-6.16909,4.74709-8.68442l-2.35425,1.0991a20.57481,20.57481,0,0,0,1.02478-7.00824A6.78736,6.78736,0,0,0,326.81509,431.24658Z"
     transform="translate(-91.08461 -73.86566)"
     fill="#2f2e41"
     id="path24" />
  <path
     d="M357.35891,434.33256l-18.94574,10.73516a22.20182,22.20182,0,0,0-8.37119,30.26159l0,0A34.46139,34.46139,0,0,0,374.1059,489.79l-17.31232-15.28291,23.48529,11.966,5.01433-2.84125C360.10573,479.05211,355.247,459.29454,357.35891,434.33256Z"
     transform="translate(-91.08461 -73.86566)"
     fill="#2f2e41"
     id="path25" />
  <path
     style="fill:#fddb94;stroke-width:0.916283;fill-opacity:1"
     d="m 178.3443,489.52441 c -2.22113,-52.1645 -2.70871,-72.49267 -2.75272,-114.7645 -0.0273,-26.2057 0.27588,-50.42994 0.67369,-53.83165 l 0.72329,-6.18491 -3.96714,-0.003 c -5.26454,-0.005 -9.79319,-2.7837 -10.52871,-6.46131 -0.42813,-2.14065 -0.90738,-2.64615 -2.03862,-2.15028 -6.22365,2.72806 -11.44066,3.97771 -16.71447,4.00369 -7.08441,0.0349 -8.1359,-0.77701 -8.81556,-6.80691 l -0.46066,-4.08696 -3.32093,1.45145 c -14.46007,6.31994 -19.31463,7.14507 -30.64105,5.20808 -16.317719,-2.7906 -31.734128,-8.39945 -33.137339,-12.05616 -0.874528,-2.27899 5.396072,-10.46883 18.040658,-23.56236 13.132176,-13.59844 14.736851,-16.63205 12.713403,-24.03453 -1.125799,-4.11857 -6.454578,-10.30165 -8.878299,-10.30165 -1.096284,0 -0.782813,-1.09819 1.404967,-4.92203 1.548854,-2.70711 2.816097,-5.15905 2.816097,-5.44875 0,-0.2897 -2.309671,0.68823 -5.132603,2.17317 -5.989355,3.15058 -11.756708,3.51161 -17.131632,1.07239 l -3.480425,-1.57948 2.872481,-3.8942 c 2.473266,-3.35299 2.638612,-3.89616 1.189717,-3.90823 -5.667865,-0.0473 -5.6687,-5.39485 -0.0025,-15.78969 8.107677,-14.87374 24.436558,-36.59092 45.414895,-60.40119 5.47588,-6.21509 9.84133,-11.42929 9.70101,-11.58713 -0.14033,-0.15783 -3.69951,1.44548 -7.90929,3.56292 -13.68143,6.8815 -22.916371,9.0261 -25.493903,5.92037 -0.612088,-0.73753 -4.373523,-2.67411 -8.358744,-4.30353 -3.985222,-1.62941 -7.245857,-3.43528 -7.245857,-4.01305 0,-3.56333 20.20941,-27.28618 33.351054,-39.149168 8.70484,-7.857894 24.64016,-26.350203 42.42766,-49.235637 16.94019,-21.795289 35.68581,-43.88440613 36.40323,-42.8961834 0.1154,0.1589529 1.35887,3.5876255 2.76327,7.6192725 6.66897,19.1448099 15.70446,32.0662229 46.71997,66.8129779 18.61165,20.850687 25.99236,29.739868 31.82718,38.332018 l 3.78611,5.57531 -2.2004,1.81819 c -1.21023,1 -6.11752,3.63403 -10.90511,5.85338 -4.78758,2.21936 -9.32318,4.34734 -10.07911,4.72884 -2.60775,1.31608 -5.4977,8.4882 -5.4977,13.64393 0,6.45707 1.7817,9.88483 10.5922,20.37796 11.45357,13.64098 23.13796,31.32501 29.81414,45.12293 2.07546,4.28944 2.07978,4.3666 0.31982,5.69764 -2.07111,1.56635 -7.09096,1.8194 -9.58749,0.48329 -1.49927,-0.80238 -1.85319,-0.47005 -2.6835,2.51978 -0.52605,1.89424 -0.95875,3.87058 -0.96156,4.39187 -0.003,0.52129 -1.21182,1.66061 -2.68669,2.53184 -7.99385,4.72209 -10.116,18.15421 -4.11187,26.02603 1.24601,1.63361 14.38268,11.11302 29.19258,21.06536 l 26.92712,18.09517 -18.34984,12.24223 c -11.26742,7.51714 -19.56125,12.43882 -21.48849,12.75157 -2.85134,0.4627 -3.23537,0.25309 -4.19524,-2.28989 l -1.05658,-2.79921 -3.7754,2.59754 c -5.4581,3.75527 -13.34574,5.81933 -20.1507,5.27309 -6.02319,-0.48348 -13.41272,-3.28426 -16.62349,-6.30063 l -1.9757,-1.85607 -4.24219,3.23814 c -5.32424,4.06407 -9.05294,5.20871 -18.85961,5.78953 -7.03952,0.41692 -18.48342,-0.93079 -25.42686,-2.99444 l -2.06164,-0.61274 v 93.10963 93.10963 h -3.07498 -3.07499 z"
     id="path26" />
  <path
     style="fill:#fddb94;fill-opacity:1;stroke-width:0.916283"
     d="M 274.88502,728.81669 C 192.00362,727.1079 161.63648,723.46314 129.39574,711.35454 81.04008,693.1937 40.525651,653.71602 19.352641,604.1274 14.79987,593.4645 9.6310145,578.77565 10.223229,578.18343 c 0.183322,-0.18332 3.421431,2.36345 7.195797,5.65949 9.669478,8.44407 24.910845,19.10981 32.495388,22.73991 14.840809,7.10309 32.584092,7.66458 60.039596,1.89997 8.31527,-1.74589 21.06853,-4.42516 28.34058,-5.95393 18.90053,-3.97339 30.41237,-5.06044 40.71832,-3.845 10.67527,1.25901 18.34563,3.77793 18.72663,6.14976 0.63119,3.92937 2.41224,6.94637 4.84265,8.20318 3.22954,1.67006 7.29773,1.70779 9.51261,0.0882 1.50227,-1.09849 3.24688,-0.50651 15.0081,5.0925 29.63478,14.10784 72.20515,28.83501 101.62476,35.15697 8.19869,1.76182 8.16643,1.72159 6.46977,8.06522 -0.73884,2.76245 -0.80027,5.00314 -0.195,7.11359 0.82937,2.89181 0.38215,3.92442 -7.28723,16.8259 -4.49394,7.55976 -8.48114,14.81074 -8.86042,16.11329 -0.37929,1.30256 -4.08684,6.99294 -8.23899,12.64528 -8.30086,11.29998 -8.27779,11.08816 -1.51952,13.95233 2.38211,1.00955 2.78992,0.87892 4.87705,-1.56228 2.26451,-2.64867 2.27465,-2.6508 1.76539,-0.37325 -0.2817,1.25989 -0.51783,2.59995 -0.52471,2.97792 -0.007,0.37797 -1.35257,0.62092 -2.99043,0.53989 -1.63786,-0.081 -18.4402,-0.4661 -37.33855,-0.85572 z"
     id="path27" />
  <path
     style="fill:#fddb94;fill-opacity:1;stroke-width:0.916283"
     d="m 336.77691,723.51195 -2.53932,-6.30778 2.7748,-5.78139 c 2.55813,-5.32996 3.00966,-5.78541 5.78265,-5.83297 2.83341,-0.0486 3.68233,-0.99472 14.63705,-16.31296 l 11.62919,-16.26137 3.38929,7.09854 c 1.86411,3.90419 4.01573,8.64476 4.78138,10.5346 1.1266,2.7808 1.86481,3.43606 3.87097,3.43606 2.40838,0 2.59295,0.39425 6.48783,13.85887 3.74507,12.94673 3.9043,13.93538 2.41926,15.02127 -1.0995,0.80397 -1.41613,1.85379 -1.02687,3.40473 l 0.5628,2.24235 -13.95268,0.60392 c -7.67398,0.33215 -18.97566,0.60391 -25.11486,0.60391 h -11.16218 z"
     id="path28" />
  <path
     style="fill:#fddb94;fill-opacity:1;stroke-width:0.916283"
     d="m 413.24382,727.36096 c -3.66257,-1.59244 -4.54758,-2.66262 -4.56739,-5.52301 -0.008,-1.11427 -0.77572,-2.76358 -1.70668,-3.66514 -1.17164,-1.13462 -2.17935,-4.6648 -3.27382,-11.46861 -0.86964,-5.40618 -1.34714,-10.20808 -1.06111,-10.67087 0.28602,-0.4628 -0.29803,-6.14159 -1.2979,-12.61952 -0.99987,-6.47794 -1.82231,-12.96509 -1.82765,-14.4159 -0.01,-2.61661 0.0253,-2.63326 4.34264,-2.07022 20.66853,2.69545 45.62934,4.88826 80.86201,7.10376 19.35162,1.21686 197.33032,1.8249 236.85926,0.80919 80.64973,-2.07232 175.32774,-7.43807 234.56855,-13.29385 7.55934,-0.74722 14.98124,-1.32981 16.49311,-1.29464 12.51463,0.29111 -65.66618,16.18187 -141.56579,28.77418 -125.18464,20.76905 -270.57428,35.29553 -385.29717,38.49662 -10.07912,0.28123 -20.79964,0.67357 -23.82337,0.87185 -3.62304,0.23758 -6.59125,-0.11495 -8.70469,-1.03384 z"
     id="path29" />
  <path
     style="fill:#fddb94;fill-opacity:1;stroke-width:0.916283"
     d="m 583.9024,537.55261 c 1.38123,-0.54677 0.96716,-1.4225 -2.97792,-6.29816 -4.27993,-5.28949 -4.58222,-6.00183 -4.58222,-10.79781 0,-4.361 0.36126,-5.46952 2.3974,-7.35656 1.98904,-1.84338 2.29951,-2.74359 1.82274,-5.28499 -0.46548,-2.48123 -0.16255,-3.45032 1.59449,-5.10097 3.06924,-2.8834 7.72087,-3.38705 11.19208,-1.21181 2.21865,1.39033 3.64324,3.83931 6.82133,11.72642 3.41674,8.47936 4.02461,10.96114 4.06782,16.60769 0.0279,3.65122 0.30996,6.6406 0.62672,6.64305 1.07815,0.008 7.1214,-19.68527 8.54398,-27.843 2.0381,-11.68729 1.85218,-29.74749 -0.42107,-40.90249 -4.45709,-21.87133 -15.76654,-44.45488 -26.44155,-52.8005 -4.90423,-3.83407 -9.75315,-10.30164 -10.71254,-14.28856 -0.50062,-2.08043 -0.30145,-2.51978 1.1423,-2.51978 3.99159,0 5.31926,-4.88873 2.11515,-7.78841 -2.53869,-2.29748 -2.29368,-3.83776 0.87078,-5.47417 3.80276,-1.96648 7.50989,-1.73943 11.13448,0.68195 7.11973,4.75629 8.29268,14.90309 2.92571,25.30943 l -2.85893,5.54335 2.97481,3.92097 c 1.63615,2.15652 4.69253,6.78122 6.79195,10.27709 l 3.81714,6.35613 v -5.25897 c 0,-9.1631 2.44136,-17.37844 7.33528,-24.68368 2.42922,-3.62614 6.03865,-8.34537 8.02096,-10.48719 3.19995,-3.45741 4.05678,-3.89192 7.63916,-3.87383 4.3129,0.0218 7.18758,1.71198 9.03319,5.31118 0.9502,1.85303 0.78826,2.40367 -1.26719,4.30859 -2.96392,2.74688 -2.97148,4.48883 -0.0322,7.42808 2.3195,2.3195 2.32148,2.33576 0.93885,7.7327 -0.76205,2.97457 -2.47451,7.55727 -3.80546,10.18378 -4.55312,8.98514 -7.35311,11.96276 -20.52286,21.82487 l -1.8354,1.37443 1.8487,5.87083 c 2.76075,8.76724 4.54898,21.34857 4.57028,32.15493 l 0.019,9.62097 3.20532,-6.58756 c 4.67208,-9.60204 6.2237,-10.71448 30.51016,-21.87439 8.21143,-3.77324 9.62455,-3.70525 11.78973,0.56723 1.0068,1.98667 0.82745,2.31504 -2.20285,4.03334 -1.81438,1.02882 -3.70838,2.52834 -4.20887,3.33226 -1.28987,2.07185 -0.10785,5.87535 2.13722,6.87712 1.83813,0.82021 1.77418,1.0445 -1.9363,6.79196 -7.79437,12.07332 -19.61517,19.9959 -32.91098,22.05775 -3.77967,0.58613 -7.35037,1.19325 -7.93489,1.34916 -0.58452,0.15591 -1.74136,2.68156 -2.57076,5.61256 -0.82939,2.93099 -2.55192,8.11229 -3.82783,11.51399 l -2.31984,6.18491 -12.06065,-0.0644 c -6.63335,-0.0354 -11.33871,-0.35019 -10.45635,-0.69949 z"
     id="path30" />
  <path
     style="fill:#fddb94;fill-opacity:1;stroke-width:0.916283"
     d="m 922.46832,621.02738 c 2.14181,-0.19291 3.88373,-0.63628 3.87094,-0.98527 -0.0128,-0.34899 -2.10686,-3.10849 -4.65348,-6.13223 l -4.63021,-5.4977 0.43055,-5.79977 c 0.34473,-4.64375 0.83193,-6.08091 2.44428,-7.21025 1.64961,-1.15543 1.90864,-1.97068 1.43254,-4.50853 -0.47591,-2.53684 -0.16626,-3.51298 1.7094,-5.38864 2.70095,-2.70095 8.12637,-3.11013 11.34512,-0.85563 4.31336,3.0212 10.33657,18.41398 11.09112,28.34424 l 0.557,7.33027 3.45007,-10.26482 c 1.89754,-5.64564 3.86744,-12.44904 4.37755,-15.11867 4.97047,-26.01256 1.45275,-51.5941 -10.24239,-74.48462 -3.87593,-7.58623 -12.45589,-20.62316 -13.57266,-20.62316 -2.8038,0 -13.75435,-13.48703 -13.78614,-16.97943 -0.005,-0.51946 1.22838,-1.41138 2.74025,-1.98205 3.38401,-1.27732 3.66948,-4.36064 0.74762,-8.07519 l -2.00123,-2.54415 2.10274,-1.70269 c 2.78953,-2.25883 8.6594,-2.2048 12.41169,0.11424 6.52887,4.03507 7.82566,14.97052 2.95568,24.92439 -1.35974,2.77921 -2.47225,5.3691 -2.47225,5.7553 0,0.38621 1.3912,2.61291 3.09156,4.94823 1.70036,2.33532 4.48358,6.72001 6.18492,9.74374 l 3.09334,5.4977 0.63994,-7.05678 c 1.18132,-13.02676 3.26444,-18.013 12.08753,-28.93317 5.61942,-6.95504 8.95644,-8.96468 13.30132,-8.01038 2.66487,0.5853 7.41556,5.09755 7.41556,7.04335 0,0.5105 -0.8762,1.63768 -1.9471,2.50485 -2.62682,2.12706 -2.55684,6.35916 0.14127,8.54396 l 2.08838,1.69106 -1.58233,5.69133 c -3.30749,11.89635 -10.5439,22.0579 -20.42148,28.67634 -2.92001,1.95653 -5.39552,3.58321 -5.50115,3.61484 -0.10562,0.0316 0.59885,2.59863 1.56549,5.70444 2.89246,9.29351 4.57544,21.12452 4.59475,32.30017 l 0.0182,10.53726 3.20956,-6.59634 c 3.99979,-8.2204 8.09985,-11.71435 20.21834,-17.22944 4.98828,-2.27014 10.59444,-4.95069 12.45812,-5.95677 4.45003,-2.40225 7.60857,-2.33253 9.38747,0.20722 2.004,2.86104 1.8666,3.19945 -2.1257,5.23617 -5.11902,2.61152 -6.3659,7.02956 -2.70719,9.59222 l 1.98727,1.39194 -1.7582,3.92865 c -0.967,2.16076 -4.64448,6.86016 -8.17217,10.44313 -8.02846,8.15422 -16.88392,12.7105 -27.79454,14.30075 l -7.35406,1.07186 -0.99681,4.17514 c -0.54825,2.29631 -2.28542,7.57683 -3.86039,11.73446 l -2.86358,7.55934 -14.30036,-0.16008 c -7.8652,-0.0881 -12.54797,-0.31792 -10.40616,-0.51083 z"
     id="path31" />
  <path
     style="fill:#fddb94;fill-opacity:1;stroke-width:0.916283"
     d="m 69.955108,592.49886 c 1.496585,-0.58895 1.152665,-1.3113 -2.977921,-6.25468 -4.405511,-5.2724 -4.669915,-5.88201 -4.669915,-10.76704 0,-4.40791 0.356637,-5.50875 2.397396,-7.40006 1.989042,-1.84337 2.299514,-2.74359 1.822742,-5.28499 -0.462646,-2.46612 -0.162313,-3.45054 1.540859,-5.05059 2.99939,-2.81778 7.110106,-3.43048 10.668847,-1.59018 2.16677,1.12047 3.636412,3.07353 5.591115,7.43019 4.041179,9.00702 6.379697,17.4418 6.422557,23.16546 l 0.03873,5.17211 2.182725,-5.25406 c 7.280027,-17.52385 9.930187,-43.4235 6.366655,-62.22062 -4.178217,-22.03951 -16.620774,-47.23112 -26.818904,-54.29842 -4.056136,-2.81091 -9.773932,-10.55455 -10.724357,-14.52406 -0.497866,-2.07936 -0.297684,-2.51978 1.145329,-2.51978 4.010916,0 5.075824,-3.81641 2.115156,-7.58029 -2.457365,-3.12403 -2.318027,-4.03329 0.870781,-5.68228 3.802757,-1.96649 7.509885,-1.73944 11.134471,0.68194 7.061082,4.71711 8.255869,14.69113 3.024248,25.24628 l -2.766905,5.58242 2.27427,2.90598 c 1.250847,1.59829 4.26435,6.21717 6.69667,10.26417 l 4.4224,7.35819 v -5.234 c 0,-9.15619 2.444261,-17.3597 7.347141,-24.65871 2.435742,-3.62614 6.123822,-8.34538 8.195742,-10.48719 3.27115,-3.38152 4.27531,-3.89152 7.62729,-3.87383 4.12935,0.0218 7.04141,1.76776 8.85841,5.31117 0.95021,1.85304 0.78826,2.40368 -1.26718,4.30859 -2.97139,2.7538 -2.97146,4.48886 -2.6e-4,7.46006 2.26686,2.26686 2.31452,2.53498 1.25479,7.05954 -2.95131,12.6008 -11.73165,24.57697 -23.227532,31.68182 l -3.144456,1.94338 1.764481,6.15537 c 2.930147,10.22178 4.494937,21.18042 4.542377,31.81131 l 0.045,10.07912 2.56106,-5.4977 c 4.55066,-9.76866 8.1986,-12.46487 31.03855,-22.94079 6.72689,-3.0854 7.81493,-3.34066 9.77287,-2.2928 2.13087,1.14041 3.91468,4.83433 2.56328,5.30806 -2.19117,0.76811 -6.76207,4.11178 -7.2074,5.27229 -0.86968,2.26633 0.46895,5.78735 2.43782,6.41225 1.79724,0.57042 1.77908,0.70739 -0.68934,5.20169 -7.10714,12.94009 -22.05461,22.71073 -37.35395,24.41698 l -5.4977,0.61312 -1.677613,5.4977 c -0.922689,3.02373 -2.740223,8.28091 -4.038964,11.68261 l -2.36135,6.18492 -11.995994,-0.0644 c -6.597798,-0.0354 -11.234598,-0.36403 -10.304001,-0.73024 z"
     id="path32" />
  <path
     style="fill:#fee3ac;fill-opacity:1;stroke-width:0.916283"
     d="m 514.03499,674.2761 c -36.38877,-0.96765 -93.05953,-5.11633 -111.41587,-8.15638 l -2.8363,-0.46972 -0.59984,-13.0421 c -0.74751,-16.25296 -2.29677,-25.879 -7.4995,-46.5966 -2.25258,-8.96996 -4.0956,-17.9015 -4.0956,-19.84787 0,-8.97974 -6.43125,-18.12505 -14.59165,-20.74951 -3.08526,-0.99225 -11.08735,-1.492 -30.30624,-1.89268 -14.36274,-0.29944 -27.43033,-0.74696 -29.03909,-0.9945 -2.187,-0.3365 -4.09499,-1.85025 -7.56196,-5.99943 -2.55032,-3.05215 -4.42318,-5.89524 -4.16191,-6.31796 0.26126,-0.42273 1.46825,-6.05477 2.68219,-12.51564 2.43339,-12.95103 8.44077,-31.35401 10.59227,-32.44832 0.75594,-0.38449 7.55934,-1.77184 15.11868,-3.08302 17.41652,-3.0209 38.81034,-7.97853 67.34683,-15.60639 36.34341,-9.71468 71.85326,-18.51817 86.58878,-21.46683 43.99435,-8.80352 78.4237,-10.3987 118.35347,-5.48357 l 8.39946,1.03393 1.53859,8.37207 c 1.94424,10.57928 1.97257,30.41762 0.0576,40.31232 -0.76647,3.96033 -2.49391,10.76373 -3.83876,15.11868 l -2.44517,7.91808 -1.63587,-7.47068 c -0.89973,-4.10888 -3.41856,-11.11845 -5.59743,-15.57682 -3.48671,-7.13449 -4.34954,-8.23276 -7.19829,-9.16253 -4.21667,-1.37623 -7.62106,-0.66389 -10.47723,2.19227 -1.95694,1.95694 -2.21823,2.8493 -1.7294,5.90625 0.49698,3.10796 0.32118,3.66761 -1.28401,4.08738 -2.02007,0.52826 -2.97273,3.62499 -2.97273,9.66321 0,2.92061 0.78962,4.58173 4.12327,8.67415 2.26781,2.78396 4.12328,5.43628 4.12328,5.89404 0,0.45776 -1.44315,0.83229 -3.20699,0.83229 -1.76385,0 -3.20699,0.41233 -3.20699,0.91628 0,0.57265 5.4936,0.91628 14.64823,0.91628 h 14.64824 l 1.46697,-3.43606 c 0.80683,-1.88983 2.68566,-7.15997 4.17517,-11.71142 l 2.70821,-8.27535 7.06159,-1.10401 c 14.02808,-2.19314 28.27095,-11.64555 34.85839,-23.1341 3.19688,-5.57537 3.5637,-7.31606 1.54173,-7.31606 -1.65098,0 -2.8955,-4.36535 -1.75587,-6.15905 0.45218,-0.7117 2.05912,-1.98794 3.57098,-2.8361 1.51187,-0.84816 3.0207,-1.91825 3.35295,-2.37798 1.301,-1.80015 47.06662,12.95684 84.61026,27.28233 27.04411,10.3192 73.75535,28.66219 74.16484,29.12372 0.34716,0.39126 1.07201,18.5103 2.37722,59.42339 0.53859,16.88252 1.18264,32.03556 1.43123,33.67341 0.42217,2.78151 0.69099,2.97792 4.07559,2.97792 h 3.62362 v -45.81417 c 0,-25.19779 0.10308,-45.80907 0.22907,-45.80284 0.12599,0.006 27.23653,10.64724 60.24563,23.64669 58.22954,22.93161 60.02541,23.71103 60.31364,26.17671 0.39299,3.36193 -2.10007,15.45796 -5.0965,24.72761 l -2.40662,7.44503 -0.67161,-4.34008 c -1.48243,-9.57983 -7.59387,-24.14218 -11.38253,-27.12233 -2.95022,-2.32065 -6.78529,-2.5383 -10.53737,-0.59803 -3.3943,1.75527 -4.7755,4.32277 -3.99607,7.42828 0.4686,1.86707 0.15488,2.78071 -1.34361,3.913 -1.47289,1.11295 -2.10077,2.87521 -2.54627,7.14662 l -0.59133,5.66941 4.73705,5.95313 4.73705,5.95313 -3.9253,0.87823 c -3.10488,0.69467 -0.80271,0.89874 11.01473,0.97636 l 14.94003,0.0981 2.18141,-4.93256 c 1.19978,-2.71292 3.06913,-7.85518 4.15412,-11.42728 2.17434,-7.15854 0.98533,-6.34324 11.66022,-7.99529 1.88983,-0.29247 6.21323,-1.69306 9.60755,-3.1124 l 6.1715,-2.58064 13.98674,5.56313 c 7.69264,3.05971 14.70824,5.51674 15.59024,5.46005 0.9297,-0.0598 1.6093,0.54675 1.6173,1.44348 0.015,1.67171 1.8698,7.30409 2.9683,9.01315 1.9389,3.01669 2.1798,13.69543 0.3741,16.58584 -0.3936,0.62995 -0.4211,1.14536 -0.061,1.14536 0.3598,0 -0.029,0.75503 -0.8642,1.67785 -0.8352,0.92281 -1.2427,1.95363 -0.9056,2.29071 0.3371,0.33707 0.1318,0.61285 -0.4561,0.61285 -0.588,0 -1.069,0.54662 -1.069,1.21471 0,0.66808 -1.0309,2.1831 -2.2907,3.36671 -1.2599,1.18361 -2.2908,1.85381 -2.2908,1.48936 0,-0.83668 -17.46698,11.13639 -19.0128,13.03269 -0.62995,0.77276 -1.14536,1.11168 -1.14536,0.75314 0,-0.35855 -1.71287,0.22194 -3.80639,1.28998 -4.13496,2.10949 -10.78324,2.92127 -51.17061,6.24813 -59.39911,4.89294 -95.95696,7.10486 -169.51243,10.25635 -21.0776,0.90306 -223.60214,1.86397 -249.22909,1.18249 z"
     id="path33" />
  <path
     style="fill:#fee3ac;fill-opacity:1;stroke-width:0.916283"
     d="M 60.672189,609.82837 C 48.940374,606.6512 34.825607,597.87533 17.506451,582.99001 L 9.3349341,575.96682 7.4501913,567.90799 C 6.4135821,563.47564 4.9502199,556.0257 4.1982751,551.35258 3.4463302,546.67947 2.5781113,542.44666 2.2688998,541.94635 0.82878567,539.61619 0.23861697,511.28055 1.3535953,498.00003 c 0.3173257,-3.77967 0.6700091,-8.10911 0.7837409,-9.62097 0.1137319,-1.51187 0.5028136,-3.22295 0.8646259,-3.8024 0.3618125,-0.57945 0.6214123,-2.02259 0.5768885,-3.20699 -0.08299,-2.20766 0.1551757,-3.70973 2.3754299,-14.98142 0.1985347,-1.00791 0.5893505,-2.7603 0.8684795,-3.8942 0.2791289,-1.1339 0.6770563,-2.78321 0.884283,-3.66513 0.2072276,-0.88193 0.8547046,-2.84048 1.4388389,-4.35235 0.5841353,-1.51187 1.0330761,-2.85193 0.9976491,-2.97792 -0.03543,-0.12599 -0.03377,-0.33215 0.0037,-0.45814 0.03745,-0.12599 0.251819,-1.22753 0.476377,-2.44787 0.224558,-1.22034 0.862896,-2.76656 1.41853,-3.43606 0.555634,-0.6695 0.703104,-1.21727 0.327713,-1.21727 -0.375391,0 -0.169227,-0.61849 0.458142,-1.37442 0.627369,-0.75594 0.833533,-1.37443 0.458141,-1.37443 -0.375391,0 -0.169227,-0.61849 0.458142,-1.37442 0.627369,-0.75594 0.836599,-1.37443 0.464954,-1.37443 -0.371644,0 -2.99e-4,-1.03082 0.825213,-2.29071 0.825511,-1.25989 1.274672,-2.29071 0.998135,-2.29071 -0.276538,0 0.206867,-1.34006 1.074232,-2.97792 0.867366,-1.63785 1.680156,-3.58893 1.806201,-4.33571 0.126044,-0.74679 0.666522,-1.50358 1.201061,-1.68176 0.534539,-0.17818 0.738822,-0.70107 0.453963,-1.16198 -0.284861,-0.46092 -0.05693,-0.83803 0.506508,-0.83803 0.56344,0 0.790148,-0.37908 0.503797,-0.84241 -0.286353,-0.46333 0.08201,-1.44506 0.818574,-2.18163 0.736568,-0.73657 1.083964,-1.59446 0.771991,-1.90644 -0.311972,-0.31197 -0.06184,-0.56722 0.555851,-0.56722 0.61769,0 0.868241,-0.41233 0.556779,-0.91628 -0.311462,-0.50396 -0.105298,-0.91629 0.458142,-0.91629 0.56344,0 0.769604,-0.41232 0.458142,-0.91628 -0.311462,-0.50395 -0.105299,-0.91628 0.458141,-0.91628 0.56344,0 0.769604,-0.41233 0.458142,-0.91629 -0.718795,-1.16303 0.04147,-1.16731 2.074071,-0.0117 0.875084,0.49753 6.538993,2.99239 12.586464,5.54415 6.04747,2.55175 15.737167,7.12589 21.53266,10.16476 12.476739,6.54219 41.247123,23.64196 41.199423,24.48701 -0.0183,0.32471 -2.07768,3.27051 -4.576327,6.54622 -5.069741,6.64638 -6.988851,11.51819 -8.572848,21.76288 l -1.076015,6.95928 -3.872696,-6.3436 c -2.129984,-3.48898 -4.634236,-7.32588 -5.565006,-8.52645 -1.664506,-2.14698 -1.649391,-2.26874 0.919962,-7.41047 1.43675,-2.87519 2.874967,-7.14419 3.196039,-9.48666 1.66854,-12.17332 -7.726289,-21.72635 -17.394015,-17.68692 -4.310914,1.80122 -5.047671,3.73885 -2.466393,6.4865 2.791249,2.97114 2.235856,6.36256 -1.104912,6.74696 -3.328602,0.383 -3.223599,2.06759 0.553059,8.8729 1.913899,3.44874 4.800799,6.86368 7.746004,9.16284 5.508309,4.30002 7.236488,6.43784 13.126511,16.23792 5.577518,9.28013 11.05189,23.33168 13.664525,35.07395 3.826132,17.1962 2.510462,39.92142 -3.375753,58.30833 l -2.453504,7.66407 -1.163176,-5.95584 c -1.13446,-5.80882 -4.260857,-14.30606 -7.863745,-21.3729 -3.295879,-6.46466 -10.515485,-7.49165 -16.058437,-2.28432 -1.735769,1.63068 -1.991893,2.56451 -1.517339,5.5322 0.491747,3.07522 0.312994,3.63782 -1.288912,4.05674 -2.022227,0.52882 -2.972729,3.62529 -2.972729,9.68433 0,2.98054 0.741008,4.50089 4.123276,8.45987 2.267801,2.65449 4.123275,5.2973 4.123275,5.87291 0,0.58522 -1.413702,1.04657 -3.206992,1.04657 -1.763846,0 -3.206992,0.41233 -3.206992,0.91629 0,0.57265 5.493602,0.91628 14.648238,0.91628 h 14.648238 l 1.465073,-3.43606 c 0.805789,-1.88984 2.709001,-7.16386 4.229363,-11.72005 l 2.764298,-8.28397 7.00739,-1.09539 c 14.09535,-2.20336 28.16862,-11.55289 34.8011,-23.12003 3.16597,-5.52149 3.56558,-7.32151 1.62541,-7.32151 -0.70202,0 -1.52668,-0.65221 -1.83257,-1.44936 -1.23121,-3.20848 -0.46346,-5.00015 3.10896,-7.25533 2.01583,-1.27253 3.66514,-2.89329 3.66514,-3.60169 0,-4.97874 -4.10508,-6.83245 -9.51272,-4.29562 -22.44633,10.53005 -25.10413,11.97279 -28.65816,15.55648 -2.09563,2.11312 -4.67236,5.58371 -5.72605,7.71242 l -1.9158,3.87036 -0.006,-6.87212 c -0.007,-8.27977 -2.01137,-21.93054 -4.506219,-30.6955 -1.714119,-6.02203 -1.730062,-6.48026 -0.260884,-7.49866 11.260723,-7.80561 16.854193,-13.9421 21.228123,-23.28897 1.51963,-3.24738 3.13072,-7.87278 3.58018,-10.27868 0.44947,-2.4059 1.01337,-4.57051 1.25311,-4.81025 0.23974,-0.23974 5.54659,2.52275 11.79301,6.13886 11.8942,6.88568 38.05328,19.99745 39.94724,20.02284 0.70932,0.01 1.19878,2.05418 1.37443,5.74154 l 0.27279,5.72677 3.89421,0.28176 3.8942,0.28176 v -4.04064 -4.04062 l 10.13164,3.07166 c 5.5724,1.68941 10.72649,3.07166 11.45354,3.07166 1.91683,0 1.70599,0.6447 -2.22659,6.80824 l -3.5485,5.56158 1.79472,39.52635 1.79473,39.52635 -4.11378,4.11379 -4.11377,4.11377 -5.35692,-1.93803 c -4.76508,-1.72392 -7.22975,-1.9295 -22.30817,-1.86084 -15.39264,0.0701 -18.13072,0.3372 -29.77921,2.9051 -42.302491,9.32555 -43.396195,9.51188 -58.183992,9.91299 -12.086752,0.32783 -15.196672,0.11595 -20.877034,-1.42238 z"
     id="path34" />
  <path
     style="fill:#fee3ac;fill-opacity:1;stroke-width:0.916283"
     d="m 328.02946,652.65778 c -37.03997,-9.12297 -71.4329,-21.13519 -100.91697,-35.24667 l -12.49563,-5.98058 1.26551,-2.42546 c 0.69603,-1.334 1.26532,-3.45627 1.2651,-4.71616 -2.3e-4,-1.25989 0.48598,-5.48625 1.08046,-9.39191 l 1.08087,-7.10119 h 2.91312 2.91312 l 1.21228,-9.82621 c 1.01865,-8.25664 1.34242,-9.39093 2.02698,-7.1012 0.44808,1.49876 1.24816,3.75583 1.77796,5.01572 0.52979,1.25989 1.0572,4.97084 1.17202,8.24655 0.17245,4.91977 0.93707,7.49123 4.39541,14.78199 4.69434,9.89645 7.0458,12.19436 15.75416,15.39532 15.87901,5.83671 30.00196,6.91826 65.40065,5.00847 14.77893,-0.79734 27.06424,-1.25625 27.30069,-1.01981 0.84217,0.84218 -1.78648,9.46644 -4.94675,16.22962 -2.30208,4.92659 -3.36911,8.70552 -3.76902,13.34813 l -0.55783,6.476 z"
     id="path35" />
  <path
     style="fill:#fee3ac;fill-opacity:1;stroke-width:0.916283"
     d="m 229.14594,559.39102 c -0.0129,-0.75593 0.91888,-7.82264 2.07063,-15.70379 2.08149,-14.24308 2.11664,-14.3562 5.83805,-18.78381 2.05917,-2.44995 4.73937,-5.38192 5.956,-6.51549 l 2.21204,-2.06105 -0.40908,5.65547 c -0.31318,4.32963 -1.15675,6.93118 -3.59834,11.09711 -4.03118,6.87816 -8.28941,16.14582 -10.40542,22.64643 -0.90223,2.77175 -1.65097,4.42106 -1.66388,3.66513 z"
     id="path36" />
  <path
     style="fill:#fee3ac;fill-opacity:1;stroke-width:0.916283"
     d="m 618.51505,229.61721 c -1.26136,-4.68435 -4.73164,-8.7994 -9.53092,-11.30176 -3.08658,-1.60935 -5.28983,-1.95918 -12.02549,-1.90938 -4.5356,0.0335 -9.43138,0.53511 -10.87951,1.1146 -3.32412,1.33021 -4.26862,0.20615 -7.0527,-8.39349 -5.37102,-16.59036 2.29896,-34.2776 18.27487,-42.14252 5.58886,-2.75138 6.70988,-2.96993 15.23416,-2.96993 8.52931,0 9.64317,0.2175 15.25026,2.97786 3.58071,1.76278 7.67477,4.74173 10.03352,7.30068 l 3.98463,4.32281 -5.38505,1.63945 c -2.96178,0.9017 -8.80594,2.02816 -12.98701,2.50324 -10.77608,1.22447 -15.11765,3.91117 -18.18561,11.25384 -1.37427,3.28908 -1.35187,3.44587 0.68274,4.779 1.157,0.75809 5.17842,2.00059 8.93649,2.7611 6.0892,1.23227 27.80316,4.15291 30.8754,4.15291 3.1222,0 -2.78463,12.02727 -8.83756,17.99469 -3.73862,3.68581 -10.37138,7.56941 -15.3862,9.00889 -1.7435,0.50046 -2.14641,0.0855 -3.00202,-3.09199 z"
     id="path37" />
  <path
     style="fill:#fbb737;fill-opacity:1;stroke-width:0.916283"
     d="m 826.13375,607.26683 c -0.34506,-9.44917 -1.04113,-27.69467 -1.54683,-40.54554 -1.07945,-27.43121 -1.32411,-110.31104 -0.36176,-122.55291 l 0.66628,-8.47562 h -4.03759 c -5.44035,0 -10.76028,-3.71326 -10.83018,-7.55934 -0.0369,-2.03099 -0.22121,-2.01612 -4.87613,0.3932 -2.81383,1.45639 -6.02716,2.10657 -11.87511,2.40278 l -8.0174,0.40609 -1.3745,-3.28964 c -0.75598,-1.80929 -1.3745,-4.2955 -1.3745,-5.52489 v -2.23526 l -7.28983,3.07446 c -10.81095,4.55948 -16.30426,5.3162 -26.2114,3.61065 -15.7501,-2.71142 -29.30959,-7.32326 -32.66747,-11.11084 -1.48979,-1.68045 -1.46619,-1.94367 0.45815,-5.1095 3.1101,-5.11658 14.93778,-18.53123 20.87067,-23.67099 5.81234,-5.03531 9.11593,-10.70334 9.0847,-15.58678 -0.0292,-4.56973 -2.96769,-10.33774 -6.51616,-12.79074 -1.69658,-1.17282 -3.21549,-2.22493 -3.37536,-2.33802 -0.15988,-0.11309 0.76786,-2.29455 2.06163,-4.84768 2.94911,-5.81978 2.93525,-6.15002 -0.16746,-3.98925 -5.631,3.92151 -13.29063,4.94321 -19.04231,2.54001 -3.78683,-1.58224 -3.89069,-2.26565 -0.88686,-5.8355 2.72649,-3.24025 2.82557,-3.83223 0.6414,-3.83223 -2.38556,0 -3.84839,-1.81983 -3.84839,-4.78755 0,-8.44881 21.35771,-39.20291 49.80414,-71.71563 5.288,-6.0439 9.52153,-11.08193 9.40784,-11.19562 -0.1137,-0.11369 -3.69012,1.54063 -7.94762,3.67629 -13.24956,6.64626 -22.99937,8.824 -25.58064,5.71376 -0.61209,-0.73753 -4.37352,-2.67411 -8.35874,-4.30353 -3.98523,-1.62941 -7.24586,-3.3083 -7.24586,-3.73084 0,-3.26052 10.74959,-16.06391 30.21504,-35.98784 20.82485,-21.31535 25.65384,-26.86943 45.40359,-52.22103 14.8476,-19.05901 19.38449,-24.57463 29.64211,-36.03676 l 6.82995,-7.63196 2.47976,6.80168 c 3.72717,10.22319 10.46561,22.68083 17.62626,32.58645 7.52454,10.40899 10.87804,14.40084 30.43555,36.22912 15.09764,16.8506 25.05681,28.89677 31.5873,38.20662 l 3.73653,5.3268 -5.7462,3.21189 c -3.16042,1.76654 -8.87551,4.6373 -12.7002,6.37948 -5.87702,2.67702 -7.21491,3.7137 -8.63884,6.69387 -0.92666,1.93945 -1.86361,5.63053 -2.08209,8.20239 -0.52554,6.18611 1.62959,10.94291 8.67485,19.14726 11.61744,13.52873 23.46575,31.10738 30.31693,44.97948 3.33361,6.74982 3.37645,6.96437 1.64416,8.23488 -2.04606,1.50064 -7.18639,1.72004 -9.63215,0.41111 -1.45048,-0.77628 -1.80527,-0.35345 -2.70646,3.22551 -0.71494,2.83926 -2.14101,5.11617 -4.59024,7.3289 -1.9542,1.7655 -4.21397,4.6027 -5.02171,6.30488 -2.05658,4.33393 -1.87909,11.7073 0.38884,16.1528 2.16964,4.25285 2.30666,4.35641 33.57183,25.37565 l 23.97575,16.11862 -3.6768,2.66346 c -12.3062,8.91456 -34.16991,22.68218 -36.0205,22.68218 -2.41921,0 -5.0472,-2.18399 -5.0472,-4.19447 0,-0.91012 -1.17409,-0.46422 -3.81508,1.4489 -10.037,7.27076 -25.44085,7.23985 -35.53363,-0.0713 l -3.91356,-2.83497 -2.4213,2.31867 c -4.27829,4.09693 -10.7777,6.32034 -19.81904,6.77999 -7.59772,0.38625 -20.95156,-1.18658 -25.43851,-2.99616 -1.52087,-0.61337 -1.6035,4.15117 -1.6035,92.4541 v 93.1008 h -3.52839 -3.52838 z"
     id="path38" />
  <path
     style="fill:#fbb737;fill-opacity:1;stroke-width:0.916283"
     d="m 179.22415,497.77096 c -2.167,-24.17831 -4.18666,-156.61541 -2.65372,-174.01379 l 0.78009,-8.8537 -4.78808,-0.59823 c -4.72849,-0.59078 -9.45076,-3.25891 -9.47802,-5.35516 -0.0416,-3.1953 -1.45682,-3.51089 -7.14748,-1.59385 -3.54402,1.1939 -7.96851,1.88942 -12.0193,1.88942 -7.09561,0 -7.55034,-0.34776 -8.68675,-6.64305 -0.34115,-1.88984 -0.77659,-3.43607 -0.96766,-3.43607 -0.19106,0 -3.52347,1.27177 -7.40534,2.82614 -11.33428,4.53847 -16.19342,5.1072 -27.205918,3.18428 -15.706292,-2.74252 -31.847,-8.76553 -31.847,-11.8839 0,-2.26029 5.641949,-9.46172 16.915954,-21.59165 12.206446,-13.13318 14.237682,-16.20206 14.237682,-21.51094 0,-5.24552 -5.608184,-14.24748 -8.876121,-14.24748 -1.652916,0 -1.547314,-0.46057 1.167952,-5.09382 1.304021,-2.22514 2.231758,-4.45533 2.061637,-4.95597 -0.171926,-0.50596 -2.486348,0.0993 -5.210782,1.36277 -5.324461,2.46919 -11.651828,2.95526 -16.494457,1.26711 -1.58707,-0.55325 -2.885582,-1.19361 -2.885582,-1.42303 0,-0.22941 1.045504,-1.94147 2.323343,-3.80457 l 2.323342,-3.38745 -2.317032,-0.86188 c -3.199623,-1.19018 -3.707729,-3.61786 -1.804083,-8.61974 4.746846,-12.47249 20.446327,-34.39028 45.916135,-64.10278 6.70855,-7.82605 11.99632,-14.43021 11.7506,-14.67593 -0.24572,-0.24572 -4.49562,1.4577 -9.44422,3.78538 -4.9486,2.32769 -11.44719,4.87077 -14.44131,5.65131 l -5.443847,1.41914 -9.391905,-4.63176 c -5.165548,-2.54746 -9.391905,-5.07698 -9.391905,-5.62113 0,-3.07023 19.301682,-25.53543 35.295537,-41.080431 9.56964,-9.301075 19.01183,-20.275981 39.50201,-45.914207 22.608,-28.288146 35.32279,-43.1839861 36.10844,-42.3023655 0.34874,0.3913289 1.78179,3.8039636 3.18456,7.5836325 6.96439,18.765108 14.19154,29.057778 45.35843,64.59798 28.93086,32.990421 36.87388,43.323391 35.01633,45.552361 -0.53997,0.64795 -5.95697,3.63538 -12.03776,6.63874 -12.60326,6.22486 -13.90687,7.78962 -14.56216,17.47936 -0.50065,7.40289 0.58454,9.64831 11.27624,23.33231 14.11257,18.06228 29.77099,42.7255 29.77099,46.89163 0,2.00016 -2.70272,2.82092 -8.02407,2.43675 l -4.25554,-0.30722 -1.11262,3.82626 c -0.70658,2.42991 -2.47667,5.05861 -4.85036,7.20309 -6.39453,5.77707 -8.02312,16.08149 -3.67236,23.23573 2.08596,3.4301 10.47455,9.6681 36.7846,27.35412 l 19.9092,13.38327 -11.66265,7.79591 c -25.38462,16.9684 -29.62265,18.90448 -31.36275,14.32766 -1.0729,-2.82195 -1.06902,-2.822 -5.42842,0.0629 -7.76604,5.13932 -18.98286,6.39635 -28.19251,3.15941 -2.84371,-0.99948 -6.05552,-2.64879 -7.13736,-3.66513 -2.59359,-2.43655 -2.93754,-2.38097 -8.13548,1.31463 -2.67609,1.90263 -6.50776,3.59087 -9.61805,4.23774 -6.37083,1.32499 -24.30806,0.61222 -31.05488,-1.23403 l -4.81049,-1.31638 v 93.32669 93.32668 h -2.67593 c -2.61685,0 -2.68724,-0.1264 -3.18917,-5.72677 z"
     id="path39" />
  <path
     style="fill:#fbb737;fill-opacity:1;stroke-width:0.916283"
     d="m 606.91378,446.33126 -2.87284,-7.43151 1.25129,-9.99603 c 1.51874,-12.13261 4.11496,-18.17223 12.14746,-28.2588 l 5.65508,-7.1012 h 4.61204 c 3.67502,0 5.06898,0.45694 6.8611,2.24906 2.72832,2.72832 2.82799,4.27326 0.41649,6.45564 -2.37908,2.15303 -2.32551,4.85487 0.14849,7.48832 1.86713,1.98747 1.9147,2.40521 0.82724,7.2645 -1.41925,6.34186 -6.48791,16.26834 -10.41549,20.3977 -1.61154,1.69433 -5.68382,5.29626 -9.04952,8.00428 -3.3657,2.70802 -6.25199,5.69674 -6.41398,6.64161 -0.16843,0.98238 -1.52456,-1.46393 -3.16736,-5.71357 z"
     id="path40" />
  <path
     style="fill:#fbb737;fill-opacity:1;stroke-width:0.916283"
     d="m 608.41218,529.62145 c 0,-0.24667 1.28569,-4.88536 2.85708,-10.30819 2.60665,-8.9955 2.90876,-11.42574 3.44679,-27.72721 l 0.58973,-17.86753 0.78184,12.81348 0.78183,12.81348 3.15988,-6.3995 c 1.73793,-3.51972 4.26756,-7.5781 5.62141,-9.01862 2.58975,-2.75556 26.43387,-14.86586 31.11156,-15.8014 2.18442,-0.43689 3.03073,-0.11645 4.23558,1.60372 1.46511,2.09173 1.40647,2.23212 -2.17477,5.2069 -4.31014,3.58024 -4.97662,7.39115 -1.69464,9.68993 l 1.98583,1.39094 -3.23812,4.84593 c -7.98516,11.95004 -19.40279,19.62788 -33.26161,22.36692 -4.21523,0.83309 -7.82656,2.08083 -8.49815,2.93616 -0.64234,0.81808 -1.99986,4.28103 -3.01672,7.69545 -1.01686,3.41442 -2.03754,6.20804 -2.26818,6.20804 -0.23063,0 -0.41934,-0.20182 -0.41934,-0.4485 z"
     id="path41" />
  <path
     style="fill:#fbb737;fill-opacity:1;stroke-width:0.916283"
     d="m 592.60629,537.63427 c -5.11925,-0.195 -8.01748,-0.67594 -8.01748,-1.33044 0,-0.56377 -1.6969,-3.22455 -3.7709,-5.91283 -3.21888,-4.17228 -3.78102,-5.55901 -3.84007,-9.473 -0.0507,-3.35857 0.46788,-5.3116 1.93833,-7.3005 1.15792,-1.56616 2.00751,-4.06008 2.00751,-5.89289 0,-5.42385 6.75049,-8.82163 11.97316,-6.02655 4.12375,2.20697 10.93392,20.46805 10.93392,29.31869 0,4.65755 0.24408,5.56959 1.37443,5.13583 0.83722,-0.32127 1.37443,-10e-4 1.37443,0.81825 0,0.94599 -0.88449,1.28971 -2.97793,1.15725 -1.63785,-0.10363 -6.58578,-0.32585 -10.9954,-0.49381 z"
     id="path42" />
  <path
     style="fill:#fbb737;fill-opacity:1;stroke-width:0.916283"
     d="m 585.33656,413.01475 c -8.56331,-8.87619 -11.13381,-14.45829 -6.93266,-15.05495 2.7403,-0.38919 3.20333,-3.92063 1.04061,-7.93656 -1.61642,-3.00151 -1.61408,-3.12439 0.0831,-4.3654 0.96049,-0.70232 3.4674,-1.27695 5.57092,-1.27695 10.49864,0 14.75647,12.60624 8.63108,25.55422 -1.59421,3.36989 -2.53978,6.57775 -2.22824,7.55934 0.29767,0.93787 0.37491,1.70521 0.17165,1.70521 -0.20326,0 -3.05466,-2.78321 -6.33645,-6.18491 z"
     id="path43" />
  <path
     style="fill:#fbb737;fill-opacity:1;stroke-width:0.916283"
     d="m 949.28636,532.34607 c -0.65077,-2.0078 -2.15774,-5.59539 -3.34883,-7.97243 -2.38242,-4.75454 -2.62397,-5.69052 -1.24934,-4.84095 0.50396,0.31146 0.91629,0.0157 0.91629,-0.65717 0,-4.26442 2.15124,-17.06591 3.40549,-20.26524 2.03111,-5.18093 7.97625,-13.87278 12.76277,-18.6593 4.81861,-4.81862 8.67185,-5.28091 13.0825,-1.56959 3.29565,2.7731 3.49366,4.26971 0.98659,7.45693 -2.37118,3.01447 -2.30974,4.12375 0.40728,7.35275 l 2.23985,2.66191 -2.52605,7.25844 c -4.02381,11.56216 -9.28937,18.75745 -18.90489,25.83323 -3.02374,2.22508 -5.74312,4.72203 -6.04307,5.54878 -0.38461,1.06008 -0.89415,0.4271 -1.72859,-2.14736 z"
     id="path44" />
  <path
     style="fill:#fbb737;fill-opacity:1;stroke-width:0.916283"
     d="m 926.63645,496.39654 c -3.42637,-3.40171 -7.05442,-7.76017 -8.06233,-9.68548 l -1.83257,-3.50055 2.51978,-1.8445 c 2.89733,-2.12087 3.26804,-5.19554 1.03696,-8.6006 -1.19429,-1.82272 -1.2616,-2.52959 -0.34594,-3.63289 1.47399,-1.77606 8.42385,-1.79708 11.82982,-0.0358 5.86314,3.03195 7.32283,13.65725 3.24939,23.65287 -1.33618,3.27877 -2.10876,6.58608 -1.81511,7.7702 0.28119,1.1339 0.31742,2.06164 0.0805,2.06164 -0.23691,0 -3.23414,-2.78321 -6.66051,-6.18491 z"
     id="path45" />
  <path
     style="fill:#fbb737;fill-opacity:1;stroke-width:0.916283"
     d="m 954.20208,595.89057 c 0.58219,-2.91093 2.11972,-16.10845 2.70441,-23.21344 0.16588,-2.01582 0.38177,-0.57268 0.47975,3.20699 l 0.17813,6.87213 3.61473,-6.87213 c 1.9881,-3.77967 5.07424,-8.15673 6.8581,-9.72679 4.86568,-4.28256 27.61718,-15.17121 30.98955,-14.83132 3.62235,0.36509 5.46765,3.24523 3.02635,4.72349 -6.49695,3.93398 -8.12575,8.23443 -4.29827,11.34845 l 1.98384,1.61405 -2.64011,4.15477 c -4.01755,6.32246 -8.15273,10.67434 -14.33423,15.08536 -5.56923,3.97413 -17.4805,8.70651 -21.91401,8.70651 -1.26422,0 -3.40981,0.42249 -4.76799,0.93887 -2.42014,0.92014 -2.45765,0.8801 -1.88025,-2.00694 z"
     id="path46" />
  <path
     style="fill:#fbb737;fill-opacity:1;stroke-width:0.916283"
     d="m 935.75443,621.01485 c -5.16555,-0.16332 -9.39191,-0.66754 -9.39191,-1.12049 0,-0.45295 -2.07394,-3.40772 -4.60875,-6.56616 -2.53481,-3.15844 -4.39029,-6.31193 -4.12328,-7.00775 0.26702,-0.69583 0.48548,-2.88476 0.48548,-4.8643 0,-2.46528 0.57734,-4.09349 1.83257,-5.16826 1.29956,-1.11272 1.83257,-2.70297 1.83257,-5.46761 0,-3.19556 0.43314,-4.18232 2.4022,-5.4725 3.93386,-2.57756 8.59932,-1.90851 11.57883,1.66046 3.50262,4.19557 7.61521,15.36256 8.89503,24.15279 0.58699,4.03165 1.20782,8.05184 1.37964,8.93377 0.17181,0.88192 0.0417,1.51653 -0.28905,1.41025 -0.33078,-0.10628 -4.82778,-0.32687 -9.99333,-0.4902 z"
     id="path47" />
  <path
     style="fill:#fbb737;fill-opacity:1;stroke-width:0.114535"
     d="m 938.44601,621.56198 c -7.09231,-0.0543 -18.13837,-0.38429 -15.97769,-0.4773 1.22807,-0.0529 3.53924,-0.57844 3.80778,-0.86591 0.10066,-0.10776 0.2241,-0.12323 0.41231,-0.0517 1.05554,0.40131 4.68972,0.72499 10.72678,0.95537 2.51978,0.0961 5.47542,0.23006 6.56809,0.29757 1.09267,0.0675 2.01317,0.0963 2.04555,0.0639 0.0324,-0.0324 0.10082,-0.40972 0.15209,-0.83854 0.0617,-0.51602 0.7754,-2.81296 2.11067,-6.79276 4.27816,-12.75119 5.51084,-17.275 6.46831,-23.73794 1.56827,-10.58594 1.78717,-20.28642 0.68683,-30.43732 -1.74047,-16.05633 -6.93249,-31.56802 -15.20058,-45.4133 -2.40508,-4.02742 -5.33757,-8.55118 -7.2602,-11.19984 -0.49316,-0.67939 -0.89665,-1.26403 -0.89665,-1.29919 0,-0.0352 0.25649,0.15082 0.56999,0.4133 0.32519,0.27226 0.62689,0.44206 0.70247,0.39535 0.0906,-0.056 0.11335,-0.36091 0.0719,-0.96514 l -0.0606,-0.88327 1.27654,1.87519 c 3.32164,4.87936 4.11697,6.08036 5.29673,7.99847 1.58491,2.57683 5.13626,8.86379 5.05362,8.94643 -0.0338,0.0338 -0.21834,-0.0196 -0.41005,-0.11876 -1.22129,-0.63155 -1.0476,0.12463 1.01092,4.40117 1.90012,3.94745 2.61344,5.62153 3.61145,8.47562 0.62203,1.7789 0.99827,2.57535 1.2649,2.67766 0.25806,0.099 0.36207,0.0137 0.63454,-0.52035 0.12949,-0.25381 0.25774,-0.43916 0.28501,-0.41189 0.0273,0.0273 0.20353,0.59785 0.3917,1.26796 0.18816,0.67012 0.68018,2.34077 1.09337,3.71256 2.39033,7.93585 3.82898,16.38188 4.40475,25.85939 0.0651,1.07091 0.1393,4.18913 0.16499,6.92939 0.0315,3.3611 0.0177,4.32863 -0.0423,2.97343 -0.099,-2.23554 -0.19796,-3.08796 -0.35834,-3.08796 -0.0591,0 -0.10759,0.0386 -0.10768,0.0859 -5.5e-4,0.28807 -0.74327,7.78193 -1.03386,10.43132 -0.4942,4.50581 -1.21295,10.21907 -1.54549,12.28489 -0.5651,3.51061 -0.56873,3.54183 -0.43548,3.74756 0.0799,0.12341 0.25843,0.18792 0.48903,0.17674 0.4294,-0.0208 0.46566,-0.33599 -0.34463,2.99553 -0.96079,3.95027 -2.26122,7.85727 -5.27002,15.83321 l -1.65216,4.37966 -2.69159,-0.0255 c -1.48037,-0.014 -4.18627,-0.0369 -6.01311,-0.0509 z"
     id="path48" />
  <path
     style="fill:#fbb737;fill-opacity:1;stroke-width:0.323955"
     d="m 71.329799,592.76388 c -0.899553,-0.11075 -1.010298,-0.2092 -0.681271,-0.60566 0.571031,-0.68804 0.153521,-1.41148 -3.258369,-5.64591 -4.548793,-5.64541 -4.680147,-5.92674 -4.821339,-10.3264 -0.149997,-4.67405 0.159687,-5.71094 2.449592,-8.20179 l 1.806083,-1.96456 -0.192293,-2.72482 c -0.22097,-3.13118 -0.03889,-3.79497 1.449165,-5.28303 2.543841,-2.54384 6.687956,-3.36571 9.871859,-1.9578 2.940446,1.30025 4.4906,3.43406 7.188945,9.89566 3.614434,8.65532 5.172421,14.83185 5.515797,21.86697 l 0.21346,4.37339 1.998163,-5.0213 c 4.526018,-11.3737 6.872788,-22.04513 7.872169,-35.79704 1.4531,-19.99527 -2.318306,-38.62182 -11.819562,-58.37544 -5.39847,-11.22371 -10.457324,-18.40325 -16.052067,-22.78113 -3.12233,-2.44322 -6.981232,-6.94001 -9.030859,-10.52368 -1.403386,-2.45376 -2.342619,-5.13264 -2.06076,-5.87771 0.07728,-0.20429 0.810411,-0.47189 1.629177,-0.59467 2.149991,-0.32241 3.327063,-1.58205 3.327063,-3.56044 0,-1.60388 -0.438195,-2.65016 -2.15549,-5.14667 -0.596234,-0.86677 -1.084061,-1.83819 -1.084061,-2.15871 0,-1.52951 4.246105,-3.55595 7.450967,-3.55595 5.021685,0 9.967218,4.10106 11.488734,9.52698 1.554435,5.54331 0.675782,10.68747 -3.221661,18.86152 l -2.028261,4.25385 1.139198,1.41536 c 1.57024,1.95091 6.5728,9.60749 9.658981,14.78339 l 2.562293,4.29727 0.369895,-6.241 c 0.507625,-8.56485 1.565549,-12.89976 4.640868,-19.01627 3.306153,-6.57561 11.539035,-16.77877 14.779455,-18.31645 1.67451,-0.79461 6.22223,-0.57179 8.09202,0.39647 2.18189,1.12988 4.67525,4.27895 4.67525,5.90476 0,0.37342 -0.86391,1.60081 -1.94373,2.76154 -1.62692,1.74882 -1.94373,2.27897 -1.94373,3.25268 0,1.47504 0.37258,2.16737 2.31697,4.30538 1.40776,1.54794 1.57041,1.88361 1.56967,3.23955 -0.002,3.06048 -2.36774,10.24374 -4.92661,14.95682 -4.06136,7.48045 -10.73032,14.79074 -17.58745,19.27874 -2.138103,1.3994 -3.992513,2.63012 -4.120913,2.73495 -0.128399,0.10483 0.418803,2.52007 1.216001,5.3672 1.714954,6.12482 3.150522,13.01515 3.879542,18.62073 0.43406,3.33759 0.9998,14.70974 1.12813,22.67686 l 0.0287,1.78176 2.24303,-4.63969 c 3.54182,-7.32626 5.74717,-9.98979 11.2362,-13.57066 6.02167,-3.92835 24.51722,-12.65277 27.46951,-12.95747 1.61781,-0.16698 1.7599,-0.11725 3.08708,1.08039 1.23304,1.1127 2.26402,2.77197 2.26402,3.64375 0,0.1669 -0.83824,0.77523 -1.86274,1.35186 -1.02451,0.57663 -2.6953,1.70093 -3.71286,2.49845 -2.24733,1.76136 -2.76889,2.97206 -2.21978,5.15278 0.49903,1.98181 1.19736,2.96184 2.58257,3.62438 1.43731,0.68745 1.40635,0.98709 -0.45686,4.42151 -4.36141,8.03932 -11.70647,15.01803 -20.63167,19.60262 -6.13429,3.15099 -11.58287,4.74373 -18.94264,5.53735 l -3.61575,0.3899 -0.550128,1.96063 c -1.009039,3.59619 -3.288692,10.35381 -5.34305,15.83849 l -2.032465,5.42625 -9.915005,-0.0518 c -5.453254,-0.0285 -10.398381,-0.11135 -10.989173,-0.18409 z"
     id="path49" />
  <path
     style="fill:#fbb737;fill-opacity:1;stroke-width:0.0809888"
     d="m 90.042232,490.32111 c -0.624095,-1.23017 -2.018355,-3.77388 -2.779618,-5.07119 -0.34376,-0.58582 -0.607439,-1.0827 -0.585953,-1.10419 0.02149,-0.0215 0.596439,0.87413 1.277673,1.99026 0.681234,1.11612 1.266355,2.04647 1.30027,2.06743 0.03391,0.021 0.0833,-0.0987 0.109749,-0.26595 0.02645,-0.16722 0.360018,-2.30782 0.741269,-4.75687 0.381251,-2.44906 0.709069,-4.46872 0.728484,-4.48813 0.06214,-0.0622 0.03829,0.26601 -0.08227,1.13169 -0.398982,2.86492 -0.532778,7.42665 -0.296258,10.10085 0.06026,0.6813 0.09532,1.25298 0.07791,1.27039 -0.01741,0.0174 -0.238472,-0.37602 -0.491256,-0.87429 z"
     id="path50" />
  <path
     style="fill:#fbb737;fill-opacity:1;stroke-width:0.0809888"
     d="m 90.061632,490.26556 c -0.190613,-0.37862 -0.691822,-1.31952 -1.113797,-2.09088 -0.421976,-0.77135 -0.751055,-1.41864 -0.731287,-1.43841 0.01977,-0.0198 0.250379,0.31068 0.512468,0.73432 0.262089,0.42363 0.502212,0.77025 0.533607,0.77025 0.09339,0 0.118663,-0.13948 0.674962,-3.72549 0.29368,-1.89311 0.550722,-3.47846 0.571205,-3.52301 0.02048,-0.0445 0.01833,0.2288 -0.0048,0.60742 -0.230038,3.76785 -0.260534,5.90997 -0.112933,7.93271 0.04872,0.66767 0.07251,1.26065 0.05286,1.31772 -0.01965,0.0571 -0.191681,-0.20601 -0.382294,-0.58463 z"
     id="path51" />
  <path
     style="fill:#fbb737;fill-opacity:1;stroke-width:0.0809888"
     d="m 87.95504,487.20676 c -4.684354,-7.79426 -6.959695,-11.2608 -9.501152,-14.47527 l -1.088548,-1.37681 0.747868,-1.49829 c 2.9611,-5.93232 3.803917,-7.95332 4.492179,-10.77186 0.64506,-2.64162 0.89253,-5.61418 0.650617,-7.81507 -0.27701,-2.52021 -1.114027,-5.00063 -2.316179,-6.8638 l -0.352725,-0.54667 0.342569,2.6e-4 0.342568,2.7e-4 0.388246,0.67826 c 2.413421,4.21622 2.88774,9.93779 1.268786,15.30499 -1.195012,3.96174 -2.974314,7.77552 -5.201685,11.14936 -0.132952,0.20139 -0.128322,0.21264 0.316541,0.7694 3.278911,4.10362 7.166113,9.91037 9.948332,14.86094 0.379639,0.67551 0.690253,1.24115 0.690253,1.25697 0,0.0158 0.122088,0.24028 0.271306,0.49879 0.500444,0.867 1.274898,2.39152 1.250821,2.46226 -0.01311,0.0385 -1.025518,-1.59667 -2.249797,-3.63373 z"
     id="path52" />
  <path
     style="fill:#fbb737;fill-opacity:1;stroke-width:0.0809888"
     d=""
     id="path53" />
  <path
     style="fill:#fbb737;fill-opacity:1;stroke-width:0.0809888"
     d=""
     id="path54" />
  <path
     style="fill:#fbb737;fill-opacity:1;stroke-width:0.0809888"
     d=""
     id="path55" />
  <path
     style="fill:#fbb737;fill-opacity:1;stroke-width:0.0809888"
     d="m 99.903772,552.52568 c 0.06412,-0.49021 0.194098,-2.76347 0.288258,-5.04155 0.10442,-2.52616 0.0546,-9.14585 -0.0847,-11.25744 -0.494373,-7.49328 -1.378031,-12.99379 -3.122605,-19.43731 -2.277078,-8.41031 -5.575835,-17.10562 -9.359455,-24.67092 -1.293729,-2.58679 -2.29777,-4.39882 -3.921166,-7.07665 -5.108412,-8.42645 -6.957959,-10.69364 -11.988542,-14.69565 -0.995806,-0.7922 -1.951874,-1.65647 -3.016832,-2.72717 -0.857469,-0.86209 -1.559034,-1.60916 -1.559034,-1.66015 0,-0.051 0.514425,0.42386 1.143168,1.05522 1.815335,1.82289 3.99065,3.55388 5.892026,4.68853 0.995536,0.59409 2.006858,1.60757 3.249162,3.25609 13.419448,17.80741 21.438777,38.97545 23.118808,61.02504 0.32774,4.30143 0.36599,10.42874 0.0905,14.49699 -0.0664,0.97997 -0.12192,1.9002 -0.12348,2.04497 -0.003,0.25191 -0.0165,0.26321 -0.32168,0.26321 -0.312814,0 -0.318212,-0.005 -0.284438,-0.26321 z"
     id="path56" />
  <path
     style="fill:#fbb737;fill-opacity:1;stroke-width:0.0809888"
     d=""
     id="path57" />
  <path
     style="fill:#fbb737;fill-opacity:1;stroke-width:0.0202472"
     d="m 93.341425,503.66679 c -1.318057,-3.47897 -2.977003,-7.25501 -4.682312,-10.65774 -0.842328,-1.68075 -1.512838,-2.94992 -2.412107,-4.56574 -1.225076,-2.20123 -2.517074,-4.35289 -3.908706,-6.50947 -0.29828,-0.46224 -1.684014,-2.54512 -1.832864,-2.75495 -0.02689,-0.0379 -0.02168,-0.0392 0.163731,-0.0392 h 0.19151 l 0.325001,0.47074 c 4.389747,6.35832 8.68258,14.82083 12.126403,23.90493 0.149463,0.39425 0.268783,0.72572 0.265155,0.73661 -0.0036,0.0109 -0.109742,-0.25247 -0.235811,-0.58522 z"
     id="path58" />
  <path
     style="fill:#fbb737;fill-opacity:1;stroke-width:0.0202472"
     d="m 90.470254,489.9416 c 1.52e-4,-0.0557 0.0041,-0.0761 0.0087,-0.0453 0.0047,0.0308 0.0045,0.0763 -2.76e-4,0.10123 -0.0048,0.0249 -0.0086,-2.8e-4 -0.0085,-0.056 z"
     id="path59" />
  <path
     style="fill:#fbb737;fill-opacity:1;stroke-width:0.0202472"
     d="m 90.58057,490.8831 c -0.0069,-0.0278 -0.01777,-0.1144 -0.02411,-0.19235 -0.163321,-2.00734 -0.203295,-3.04894 -0.186878,-4.86945 0.01279,-1.41849 0.02903,-1.84725 0.116542,-3.07757 0.07214,-1.01421 0.203987,-2.26373 0.338623,-3.20918 l 0.05478,-0.3847 0.19741,-0.006 c 0.154891,-0.005 0.19741,8e-5 0.19741,0.0215 0,0.015 -0.03154,0.24083 -0.07009,0.50185 -0.187908,1.27233 -0.326218,2.59945 -0.405014,3.88622 -0.06709,1.09555 -0.07622,1.45436 -0.09299,3.65462 -0.01579,2.07161 -0.02196,2.35589 -0.06528,3.00671 -0.02631,0.39533 -0.05349,0.696 -0.06041,0.66816 z"
     id="path60" />
  <path
     style="fill:#fbb737;fill-opacity:1;stroke-width:0.0202472"
     d="m 89.522415,490.19976 c -1.131021,-1.89757 -2.122986,-3.55218 -2.503566,-4.17599 -1.097924,-1.79959 -2.659381,-4.27308 -4.03898,-6.39811 -0.155437,-0.23942 -0.289442,-0.44671 -0.297789,-0.46063 -0.0115,-0.0192 0.01577,-0.0253 0.112564,-0.0253 l 0.12774,6e-5 0.424477,0.66304 c 1.34971,2.10826 1.986635,3.14692 4.813655,7.84978 l 2.384936,3.96744 v 0.13768 c 0,0.0757 -0.0028,0.13768 -0.0062,0.13768 -0.0034,0 -0.460983,-0.76307 -1.016869,-1.6957 z"
     id="path61" />
  <path
     style="fill:#fbb737;fill-opacity:1;stroke-width:0.0202472"
     d="m 90.217667,491.34268 c -0.161999,-0.26948 -0.866622,-1.44663 -1.56583,-2.61591 -1.474142,-2.46519 -1.829415,-3.05028 -2.69858,-4.44426 -0.69362,-1.11243 -2.134915,-3.38054 -2.824157,-4.44426 -0.396356,-0.6117 -0.429426,-0.66952 -0.391389,-0.6843 0.02285,-0.009 0.07273,-0.0134 0.110838,-0.0101 0.0662,0.006 0.08059,0.0236 0.322485,0.40084 1.488567,2.32121 1.987183,3.13524 5.61638,9.1692 1.609516,2.67601 1.758038,2.93035 1.758038,3.01058 0,0.0482 -0.0075,0.0923 -0.01662,0.0979 -0.0091,0.006 -0.149165,-0.2102 -0.311165,-0.47967 z"
     id="path62" />
  <path
     style="fill:#fbb737;fill-opacity:1;stroke-width:0.0202472"
     d=""
     id="path63" />
  <path
     style="fill:#fbb737;fill-opacity:1;stroke-width:0.0202472"
     d="m 89.536198,489.90241 c -0.560657,-0.93213 -1.015099,-1.69906 -1.00987,-1.70429 0.0052,-0.005 0.157892,0.23458 0.339253,0.53291 0.81427,1.33943 1.302612,2.11157 1.335461,2.11157 0.01116,0 0.0014,-0.0478 -0.02178,-0.10629 -0.02314,-0.0585 -0.04752,-0.12452 -0.0542,-0.1468 -0.01136,-0.0379 -0.01,-0.0383 0.0219,-0.007 0.01872,0.0187 0.03403,0.0398 0.03403,0.047 0,0.007 0.01419,0.0272 0.03153,0.0445 0.01734,0.0173 0.02656,0.0445 0.02048,0.0604 -0.0068,0.0178 -0.0024,0.0234 0.01159,0.0148 0.01377,-0.009 0.01861,-0.003 0.01235,0.0141 -0.0057,0.0155 0.06197,0.16749 0.150299,0.33781 0.142332,0.27448 0.159895,0.32026 0.154458,0.4026 -0.0061,0.0925 -0.0103,0.086 -1.025511,-1.60186 z"
     id="path64" />
  <path
     style="fill:#fbb737;fill-opacity:1;stroke-width:0.0202472"
     d=""
     id="path65" />
  <path
     style="fill:#fbb737;fill-opacity:1;stroke-width:0.0286339"
     d="m 102.70817,549.67699 c -0.005,-2.64724 -0.0582,-8.57854 -0.0827,-9.27022 -0.19736,-5.57228 -0.67164,-10.41472 -1.53404,-15.66272 -0.67076,-4.0818 -1.636711,-8.4811 -2.689921,-12.25085 -0.08732,-0.31253 -0.158757,-0.57346 -0.158757,-0.57983 0,-0.006 0.0892,-0.0116 0.198216,-0.0116 h 0.198217 l 0.02947,0.0931 c 0.109086,0.34451 0.65458,2.33963 0.890536,3.2571 1.401569,5.44975 2.433939,11.02591 3.048219,16.46447 0.36146,3.20013 0.56728,6.10606 0.67434,9.52076 0.0241,0.76985 0.0123,6.3242 -0.0146,6.81485 -0.008,0.14174 -0.0271,0.58628 -0.043,0.98787 -0.0159,0.40159 -0.0371,0.87512 -0.047,1.0523 l -0.0181,0.32213 h -0.22471 -0.22471 z"
     id="path66" />
  <path
     style="fill:#fbb737;fill-opacity:1;stroke-width:0.0286339"
     d="m 103.19692,550.26398 c 2.7e-4,-0.0827 0.0194,-0.55621 0.0425,-1.05229 0.0639,-1.3736 0.0859,-2.61985 0.0859,-4.88208 0,-2.76808 -0.0375,-4.18646 -0.17232,-6.5142 -0.4778,-8.25051 -1.96573,-17.01379 -4.267503,-25.13376 -0.117248,-0.41361 -0.213177,-0.75829 -0.213177,-0.76595 0,-0.008 0.05744,-0.0139 0.127639,-0.0139 h 0.12764 l 0.05741,0.19328 c 0.134798,0.45386 0.450278,1.63643 0.67412,2.52694 1.850781,7.36283 3.349041,17.19831 3.751221,24.62511 0.0831,1.53473 0.10034,2.27813 0.10488,4.52415 0.002,1.23627 0.0123,3.09224 0.0219,4.12439 l 0.0173,1.87664 0.8988,-1.81937 c 1.02734,-2.07958 1.29473,-2.59474 1.68418,-3.24486 0.70355,-1.1744 1.87832,-2.82072 2.96655,-4.1573 1.61892,-1.98838 3.11027,-3.46297 4.73003,-4.67688 0.52281,-0.39182 1.77146,-1.23682 1.82765,-1.23682 0.0437,0 0.0181,0.0198 -0.35301,0.2728 -0.91992,0.62712 -1.98525,1.45641 -2.7918,2.17325 -0.86669,0.77029 -1.924,1.82813 -2.622,2.62331 -2.67038,3.04215 -4.671,6.51214 -5.95491,10.3285 l -0.12764,0.3794 h -0.30788 -0.30789 z"
     id="path67" />
  <path
     style="fill:#fbb737;fill-opacity:1;stroke-width:0.0286339"
     d="m 102.65222,549.6054 c -4.7e-4,-1.20352 -0.20074,-6.72536 -0.3736,-10.30103 -0.24139,-4.99337 -0.49742,-8.57933 -0.74415,-10.42272 -0.66017,-4.93222 -1.86532,-10.90143 -3.291137,-16.30121 -0.09481,-0.35905 -0.172374,-0.65863 -0.172374,-0.66574 0,-0.007 0.03221,-0.0129 0.07158,-0.0129 0.03937,0 0.07158,0.005 0.07158,0.0117 0,0.006 0.07666,0.28671 0.170366,0.62279 1.895175,6.79748 3.247555,14.38824 3.850775,21.61399 0.2849,3.41267 0.40281,6.18112 0.41221,9.67824 0.002,0.8898 0.013,2.64541 0.0236,3.90136 0.0106,1.25596 0.0107,2.28355 2.8e-4,2.28355 -0.0104,0 -0.019,-0.18361 -0.0191,-0.40803 z"
     id="path68" />
  <path
     style="fill:#fbb737;fill-opacity:1;stroke-width:0.0286339"
     d="m 100.87489,542.94803 c -10e-4,-0.53152 -0.006,-0.98572 -0.0103,-1.00934 -0.004,-0.0236 -0.0173,-0.45528 -0.0285,-0.95924 -0.0112,-0.50395 -0.0252,-0.96138 -0.0312,-1.0165 -0.006,-0.0551 -0.0184,-0.31927 -0.0277,-0.58699 -0.0371,-1.06345 -0.13508,-2.64404 -0.25897,-4.17715 -0.555435,-6.8737 -1.813207,-14.01083 -3.653995,-20.73431 -0.231278,-0.84475 -0.709187,-2.50692 -0.730883,-2.54203 -0.0096,-0.0155 -9.7e-5,-0.0224 0.02103,-0.0153 0.09267,0.0309 1.178354,3.85651 1.80225,6.35056 1.82675,7.30252 2.648598,13.28105 2.891218,21.03234 0.0365,1.16584 0.0726,4.62437 0.0483,4.62437 -0.0104,0 -0.02,-0.43487 -0.0212,-0.96639 z"
     id="path69" />
  <path
     style="fill:#fbb737;fill-opacity:1;stroke-width:0.00390625"
     d="m 100.57873,533.93066 c -0.11864,-1.54705 -0.30192,-3.31752 -0.50274,-4.85623 -0.016,-0.12258 -0.0291,-0.22419 -0.0291,-0.2258 -1e-5,-0.002 0.008,-0.003 0.0167,-0.003 h 0.0167 l 0.0265,0.19825 c 0.21875,1.63676 0.41676,3.43616 0.54149,4.92089 0.004,0.0516 0.009,0.10298 0.0102,0.11426 l 0.002,0.0205 h -0.0345 -0.0345 z"
     id="path70" />
  <path
     style="fill:#fbb737;fill-opacity:1;stroke-width:0.00390625"
     d="m 100.59203,534.0791 c -10e-4,-0.0113 -0.005,-0.0565 -0.008,-0.10058 -0.0711,-0.96467 -0.20262,-2.33965 -0.33408,-3.49219 -0.0564,-0.49444 -0.0969,-0.8262 -0.17791,-1.45833 -0.0241,-0.18802 -0.024,-0.18209 -0.003,-0.18224 0.0104,-7e-5 0.008,-0.0122 0.0304,0.15619 0.2255,1.70025 0.40999,3.36563 0.53723,4.84961 0.009,0.10098 0.0171,0.1981 0.0188,0.21582 l 0.003,0.0322 h -0.0321 -0.0321 z"
     id="path71" />
  <path
     style="fill:#fbb737;fill-opacity:1;stroke-width:0.00390625"
     d=""
     id="path72" />
  <path
     style="fill:#fbb737;fill-opacity:1;stroke-width:0.00390625"
     d="m 100.57813,534.09464 c 0,-0.003 -0.008,-0.10601 -0.0176,-0.22949 -0.13067,-1.66772 -0.29386,-3.23135 -0.50223,-4.81242 -0.0129,-0.0978 -0.0245,-0.18432 -0.0257,-0.19238 -0.002,-0.0114 -0.001,-0.0147 0.004,-0.0147 0.007,0 0.004,-0.0179 0.0381,0.24219 0.18916,1.45828 0.34338,2.91975 0.46869,4.44141 0.0388,0.47174 0.0458,0.57031 0.0403,0.57031 -0.003,0 -0.005,-0.002 -0.005,-0.005 z"
     id="path73" />
  <path
     style="fill:#fbb737;fill-opacity:1;stroke-width:0.00390625"
     d="m 100.34406,531.50358 c 1.9e-4,-0.005 0.001,-0.005 0.002,-0.002 0.001,0.003 9.9e-4,0.006 -3.1e-4,0.007 -10e-4,10e-4 -0.002,-0.001 -0.002,-0.005 z"
     id="path74" />
  <path
     style="fill:#fbb737;fill-opacity:1;stroke-width:0.00390625"
     d="m 100.41691,534.09694 c -0.001,-0.002 -0.003,-0.0181 -0.005,-0.0364 -0.003,-0.0322 -0.0367,-0.39657 -0.053,-0.56641 -0.13572,-1.41725 -0.33898,-3.13728 -0.542857,-4.59371 -0.0066,-0.0474 -0.0075,-0.0657 -0.0024,-0.0504 0.0023,0.007 0.04527,0.32065 0.09386,0.68513 0.160387,1.20303 0.293437,2.33796 0.416017,3.54882 0.041,0.40465 0.0986,1.0123 0.0962,1.01467 -8.1e-4,8.1e-4 -0.002,4e-5 -0.003,-0.002 z"
     id="path75" />
  <path
     style="fill:#fbb737;fill-opacity:1;stroke-width:0.00390625"
     d="m 100.38498,534.09473 c -8.2e-4,-0.003 -0.003,-0.0286 -0.006,-0.0576 -0.0152,-0.18301 -0.0912,-0.94747 -0.14299,-1.4375 -0.12204,-1.15492 -0.272885,-2.3944 -0.429589,-3.52994 -0.01606,-0.11636 -0.0292,-0.21447 -0.0292,-0.21801 0,-0.005 0.0032,-0.006 0.01465,-0.005 0.01462,10e-4 0.01466,10e-4 0.01741,0.0227 0.0015,0.0118 0.01418,0.1041 0.02813,0.20508 0.143605,1.03951 0.296469,2.28595 0.402649,3.2832 0.008,0.072 0.0174,0.1625 0.0216,0.20117 0.014,0.12932 0.0657,0.63772 0.084,0.82618 0.006,0.0569 0.0134,0.13867 0.0176,0.18164 0.009,0.0967 0.0288,0.3041 0.0391,0.41601 0.004,0.0462 0.009,0.0915 0.01,0.10059 l 0.002,0.0166 h -0.014 c -0.008,0 -0.0147,-0.002 -0.0155,-0.005 z"
     id="path76" />
  <path
     style="fill:#fbb737;fill-opacity:1;stroke-width:0.00390625"
     d="m 100.3914,534.09627 c -0.004,-0.002 -0.009,-0.0455 -0.0185,-0.14741 -0.0228,-0.24536 -0.076,-0.78076 -0.1133,-1.14027 -0.10242,-0.98834 -0.23201,-2.08796 -0.365294,-3.09961 -0.02263,-0.1718 -0.111563,-0.83272 -0.114449,-0.85058 -0.0012,-0.008 2.93e-4,-0.009 0.01128,-0.009 0.01125,0 0.01296,0.001 0.01498,0.0127 0.0035,0.0196 0.07708,0.56189 0.107679,0.79395 0.185504,1.40677 0.340474,2.77196 0.465144,4.09766 0.0152,0.16113 0.0289,0.30483 0.0306,0.31933 0.003,0.0251 0.003,0.0264 -0.005,0.0263 -0.004,-3e-5 -0.0104,-0.002 -0.0132,-0.003 z"
     id="path77" />
  <path
     style="fill:#fee3ac;fill-opacity:1;stroke-width:0.5"
     d="m 509,673.95541 c -2.0625,-0.0981 -8.925,-0.41697 -15.25,-0.70866 -33.409,-1.54071 -69.10021,-4.40306 -91.57942,-7.34444 l -2.07942,-0.27209 -0.30772,-5.81511 c -1.27454,-24.08537 -2.1394,-30.05435 -7.73578,-53.38995 -2.62281,-10.93651 -3.59924,-15.79901 -4.50315,-22.42516 -1.05756,-7.75247 -5.74811,-14.58086 -12.16339,-17.70718 -4.08228,-1.9894 -8.0948,-2.34162 -34.38112,-3.01796 -26.19025,-0.67387 -27.79315,-0.79359 -30.01395,-2.24179 -2.68463,-1.75066 -9.38556,-10.23215 -8.81432,-11.15644 0.14186,-0.22953 1.18202,-4.86264 2.31147,-10.2958 2.21333,-10.64719 4.40175,-18.70753 7.19428,-26.49784 2.06484,-5.76028 2.91796,-7.20393 4.6452,-7.86062 0.69871,-0.26565 7.26819,-1.59676 14.59885,-2.95802 21.76922,-4.04241 37.22744,-7.672 73.82847,-17.33491 41.70921,-11.01151 71.77849,-18.23609 89,-21.38355 22.83325,-4.17307 38.4639,-5.77346 60.01147,-6.14443 20.18527,-0.34752 33.86467,0.44133 54.79782,3.16002 l 2.30929,0.29992 1.06741,6.10841 c 2.30828,13.20952 2.31774,33.49698 0.0206,44.12557 -1.26416,5.84905 -4.88968,18.73685 -5.43185,19.30882 -0.21072,0.22231 -0.65407,-1.01519 -0.98521,-2.75 -1.50609,-7.89028 -7.73134,-22.96241 -10.71622,-25.94537 -3.55881,-3.55652 -10.5527,-3.05165 -13.96899,1.00838 -1.20036,1.42655 -1.35431,2.02231 -1.35431,5.24089 0,3.40798 -0.0785,3.66715 -1.27598,4.21276 -1.831,0.83426 -2.79355,3.59815 -2.88587,8.2865 -0.093,4.72324 0.17893,5.35822 5.00123,11.67841 3.5493,4.65179 3.5417,5.08643 -0.0894,5.11423 -2.16035,0.0165 -3.71641,0.69978 -3.06963,1.34781 0.22077,0.2212 6.99938,0.47081 15.06357,0.55468 l 14.66216,0.1525 1.60288,-4.1525 c 0.88159,-2.28387 2.74298,-7.5323 4.13642,-11.66317 l 2.53353,-7.51068 5.46086,-0.8896 c 17.05945,-2.77906 31.54086,-12.92807 37.9308,-26.58304 1.48827,-3.18038 1.53333,-4.256 0.17825,-4.256 -2.19651,0 -3.03859,-5.11919 -1.12384,-6.83209 2.74864,-2.45887 6.15885,-4.33191 7.71536,-4.2376 5.77203,0.3497 46.21503,13.52696 77.40964,25.22185 14.06115,5.27153 40.89103,15.68611 61.608,23.91442 17.57135,6.97895 17.6085,6.99681 17.8646,8.58846 0.29325,1.82237 0.94945,18.43106 2.0384,51.59496 0.41535,12.65 0.9726,27.1625 1.23835,32.25 0.56965,10.90565 0.6173,11 5.55605,11 H 834 v -45.47049 c 0,-25.00877 0.189,-45.5873 0.42,-45.73007 0.35255,-0.21788 36.3045,13.76193 91.08,35.41618 13.45775,5.32022 24.368,9.95876 26.85285,11.41661 0.88155,0.51721 1.7446,1.38713 1.9179,1.93315 0.68635,2.16243 -1.6695,14.02782 -4.83725,24.36357 l -2.1441,6.99578 -0.9232,-4.58737 c -1.8008,-8.94805 -6.5971,-20.78765 -9.98375,-24.64484 -3.08465,-3.51321 -7.3978,-4.17237 -11.893,-1.81752 -3.431,1.79734 -4.6534,3.91861 -4.2046,7.29623 0.29845,2.24615 0.2066,2.54001 -1.27045,4.06391 -1.75265,1.80829 -2.3046,3.64082 -2.79045,9.26486 l -0.324,3.75 4.5318,5.75 c 4.96795,6.30347 4.9094,5.83575 0.84435,6.74062 -3.6838,0.81999 0.82295,1.24455 13.287,1.25172 l 13.31305,0.008 2.01575,-4.875 c 1.10865,-2.68125 2.88025,-7.54932 3.9369,-10.81792 1.2621,-3.90403 2.2643,-6.16672 2.9212,-6.59524 0.55,-0.35879 3.1375,-0.99597 5.75,-1.41596 4.9682,-0.79871 9.3589,-2.1384 15.2612,-4.6565 l 3.5112,-1.49798 10.4888,4.14487 c 5.76885,2.27968 12.4013,4.7544 14.7388,5.49938 5.7367,1.82833 5.6942,1.80022 6.0734,4.01563 0.1835,1.0718 0.8275,3.18622 1.4312,4.69872 0.6036,1.5125 1.4421,3.65 1.8632,4.75 0.9943,2.59744 1.1135,10.73551 0.2013,13.75 -0.3744,1.2375 -1.1201,3.09375 -1.657,4.125 -0.5368,1.03125 -0.8492,1.875 -0.6941,1.875 0.1551,0 -0.07,0.39375 -0.5007,0.875 -0.4305,0.48125 -1.2826,1.6616 -1.8936,2.623 -0.663,1.04328 -2.2121,2.32675 -3.8423,3.18353 -3.0652,1.61095 -14.08305,9.04795 -17.3909,11.7388 -3.45335,2.80918 -9.2749,4.68418 -18.05675,5.8157 -10.105,1.302 -50.6593,4.70652 -86.28375,7.24348 -32.3275,2.30217 -50.7045,3.34354 -102.25,5.79421 -8.9375,0.42492 -28.7375,0.97894 -44,1.23114 -27.35301,0.452 -223.20865,1.04725 -230.5,0.70055 z"
     id="path92" />
  <path
     style="fill:#fee3ac;fill-opacity:1;stroke-width:0.5"
     d="m 617.3489,486.37832 c -0.31532,-9.28839 -1.47473,-18.10791 -3.19686,-24.31824 -0.23791,-0.85797 -0.0489,-0.91029 2.16866,-0.60008 7.90931,1.1064 34.07462,6.57206 34.83597,7.27687 0.22367,0.20706 -1.80133,1.32566 -4.5,2.48579 -11.18988,4.81039 -16.99655,7.93187 -20.09998,10.8051 -3.77854,3.49826 -6.37193,6.99297 -7.80377,10.51595 l -1.10262,2.71293 z"
     id="path93" />
  <path
     style="fill:#fbb737;fill-opacity:1;stroke-width:0.707107"
     d="m 562.14989,251.60618 c -12.62927,-1.35628 -27.24031,-4.08899 -29.38855,-5.49658 -0.94828,-0.62134 -1.72415,-1.61234 -1.72415,-2.20223 0,-1.93846 2.72259,-6.45819 5.09552,-8.45902 3.40894,-2.87437 6.13023,-3.79805 13.4526,-4.56616 9.72645,-1.02031 14.07183,-2.35335 24.23184,-7.43364 10.98196,-5.49128 16.63423,-6.96858 25.15946,-6.57578 4.82296,0.22222 6.89042,0.68215 10.079,2.24217 9.03107,4.4185 12.12999,15.2778 7.03251,24.64353 -2.29493,4.21655 -5.29303,6.66736 -9.82455,8.03115 -4.42373,1.33135 -31.03893,1.22067 -44.11368,-0.18344 z"
     id="path94" />
  <path
     style="fill:#fbb737;fill-opacity:1;stroke-width:0.707107"
     d="m 645.94204,204.95127 c -23.0982,-1.84169 -39.89771,-5.01916 -40.94335,-7.74406 -0.56235,-1.46545 1.97346,-6.21624 4.71798,-8.83905 3.17329,-3.03257 6.25287,-4.15458 13.59796,-4.95427 9.35017,-1.01799 15.64714,-2.95223 25.02159,-7.68587 4.60123,-2.3234 10.39964,-4.70377 12.88535,-5.2897 5.86058,-1.38147 14.25017,-1.37513 18.92895,0.0143 13.06771,3.88069 16.71622,21.00679 6.45098,30.28083 -4.44117,4.01232 -8.05326,4.69912 -23.99401,4.56218 -7.61036,-0.0654 -15.10981,-0.22035 -16.66545,-0.34438 z"
     id="path95" />
</svg>
